<svg xmlns="http://www.w3.org/2000/svg" viewBox="514.0 1399.0 3268.0 1319.0"><path d="M0 0 C4.31 2.32 7.09 4.44 9 9 C10.01 18.07 4.51 26.23 0.69 34.19 C0.44 34.7 0.44 34.7 -0.8 37.29 C-4.13 44.23 -7.52 51.14 -11 58 C-11.71 59.42 -12.42 60.83 -13.12 62.25 C-14.42 64.83 -15.71 67.42 -17 70 C-17.31 70.63 -17.63 71.25 -17.95 71.9 C-18.6 73.2 -19.25 74.5 -19.91 75.79 C-22.16 80.26 -24.32 84.77 -26.45 89.31 C-30.44 97.79 -34.56 106.17 -39.04 114.41 C-41.28 118.53 -43.19 122.67 -45 127 C-45.63 128.32 -46.27 129.63 -46.94 130.94 C-47.24 131.52 -47.53 132.11 -47.84 132.71 C-48.22 133.47 -48.61 134.22 -49 135 C-49.63 136.26 -50.26 137.53 -50.89 138.79 C-52.21 141.42 -53.53 144.06 -54.86 146.68 C-58.32 153.56 -61.7 160.45 -64.94 167.44 C-68.05 174.15 -71.41 180.7 -74.94 187.2 C-77.21 191.39 -79.14 195.62 -81 200 C-82.29 202.69 -83.65 205.34 -85 208 C-85.62 209.23 -86.24 210.46 -86.86 211.68 C-87.17 212.29 -87.47 212.9 -87.79 213.53 C-91.32 220.55 -94.74 227.63 -98.05 234.76 C-100.78 240.6 -103.68 246.33 -106.65 252.05 C-107.89 254.75 -108.57 257.07 -109 260 C-108.41 259.77 -107.83 259.54 -107.23 259.3 C-101.17 257 -95.05 255.07 -88.81 253.31 C-88.07 253.1 -87.32 252.88 -86.55 252.66 C-80.07 250.87 -73.84 249.94 -67.12 250 C-53.71 250.08 -53.71 250.08 -49.06 247.14 C-47.03 244.85 -45.52 242.66 -44 240 C-40.61 234.76 -36.91 229.76 -33.19 224.75 C-28.91 218.96 -24.66 213.17 -20.57 207.25 C-17.45 202.78 -14.21 198.4 -11 194 C-9.67 192.17 -8.33 190.33 -7 188.5 C17 155.5 17 155.5 19 152.76 C20.35 150.9 21.7 149.02 23.04 147.14 C35.22 130.12 35.22 130.12 43 128 C48 128.1 51.13 129.92 55 133 C57.77 137.6 58.22 141.79 57 147 C54.32 152.39 50.6 157.2 47 162 C46.43 162.78 45.87 163.55 45.28 164.35 C44.36 165.6 43.43 166.83 42.48 168.06 C39.95 171.38 37.52 174.77 35.06 178.16 C33.09 180.88 31.11 183.6 29.12 186.31 C26.59 189.79 24.08 193.29 21.59 196.79 C17.06 203.16 12.46 209.47 7.81 215.75 C3.71 221.3 -0.36 226.85 -4.28 232.53 C-5.68 234.54 -7.1 236.54 -8.53 238.53 C-8.98 239.16 -9.43 239.78 -9.89 240.42 C-10.77 241.65 -11.65 242.87 -12.54 244.09 C-14.85 247.31 -17.02 250.57 -19 254 C-18.22 254.25 -17.43 254.49 -16.62 254.75 C-4.01 259.1 9.3 264.68 19.68 273.2 C22 275 22 275 24.88 275.25 C28.96 273.62 30.82 271.13 33.48 267.71 C33.98 267.15 34.48 266.58 35 266 C35.66 266 36.32 266 37 266 C37.66 264.68 38.32 263.36 39 262 C39.66 262 40.32 262 41 262 C41.66 260.68 42.32 259.36 43 258 C43.66 258 44.32 258 45 258 C45.66 256.68 46.32 255.36 47 254 C47.66 254 48.32 254 49 254 C49.66 252.68 50.32 251.36 51 250 C51.66 250 52.32 250 53 250 C53.66 248.68 54.32 247.36 55 246 C55.66 246 56.32 246 57 246 C57.66 244.68 58.32 243.36 59 242 C59.66 242 60.32 242 61 242 C61.66 240.68 62.32 239.36 63 238 C63.66 238 64.32 238 65 238 C65.66 236.68 66.32 235.36 67 234 C67.66 234 68.32 234 69 234 C69.66 232.68 70.32 231.36 71 230 C71.66 230 72.32 230 73 230 C73.66 228.68 74.32 227.36 75 226 C75.66 226 76.32 226 77 226 C77.66 224.68 78.32 223.36 79 222 C79.66 222 80.32 222 81 222 C81.66 220.68 82.32 219.36 83 218 C83.66 218 84.32 218 85 218 C85.66 216.68 86.32 215.36 87 214 C87.66 214 88.32 214 89 214 C89.66 212.68 90.32 211.36 91 210 C91.66 210 92.32 210 93 210 C93.66 208.68 94.32 207.36 95 206 C95.66 206 96.32 206 97 206 C97.66 204.68 98.32 203.36 99 202 C99.66 202 100.32 202 101 202 C101.66 200.68 102.32 199.36 103 198 C103.66 198 104.32 198 105 198 C105.66 196.68 106.32 195.36 107 194 C107.66 194 108.32 194 109 194 C109.66 192.68 110.32 191.36 111 190 C111.66 190 112.32 190 113 190 C113.66 188.68 114.32 187.36 115 186 C115.66 186 116.32 186 117 186 C117.66 184.68 118.32 183.36 119 182 C119.66 182 120.32 182 121 182 C121.66 180.68 122.32 179.36 123 178 C123.66 178 124.32 178 125 178 C125.66 176.68 126.32 175.36 127 174 C127.66 174 128.32 174 129 174 C129.66 172.68 130.32 171.36 131 170 C131.66 170 132.32 170 133 170 C133.33 169.01 133.66 168.02 134 167 C138.39 163.99 141.54 162.07 147 163 C151.27 165.3 154.56 167.78 157 172 C157.68 176.17 157.54 179.73 155.88 183.62 C155.26 184.41 154.64 185.19 154 186 C153.57 186.54 153.15 187.09 152.71 187.64 C149.66 191.38 146.36 194.47 142.65 197.54 C141 199 141 199 138.5 202 C136.08 204.9 133.58 207.1 130.69 209.5 C129 211 129 211 126.5 214 C124.08 216.9 121.58 219.1 118.69 221.5 C117 223 117 223 114.5 226 C112.08 228.9 109.58 231.1 106.69 233.5 C105 235 105 235 102.5 238 C100.08 240.9 97.58 243.1 94.69 245.5 C93 247 93 247 90.5 250 C88.08 252.9 85.58 255.1 82.69 257.5 C81 259 81 259 78.5 262 C76.08 264.9 73.58 267.1 70.69 269.5 C69 271 69 271 66.5 274 C64.08 276.9 61.59 279.1 58.69 281.5 C56.17 283.74 54.16 286.4 52 289 C50.93 289.92 49.85 290.81 48.75 291.69 C46 294 46 294 45 297 C46.48 299.96 48.35 302.47 50.31 305.12 C53.7 309.81 56.32 314.89 59 320 C59.47 320.87 59.94 321.75 60.42 322.65 C63.08 327.72 64.86 332.38 66 338 C68.31 338 70.62 338 73 338 C73.33 337.01 73.66 336.02 74 335 C76.22 333.39 76.22 333.39 79.06 331.69 C83.96 328.74 88.47 325.46 93 322 C94.31 321.01 95.62 320.02 96.93 319.04 C97.57 318.55 98.22 318.06 98.88 317.56 C104.74 313.15 110.62 308.8 116.66 304.63 C120.15 302.2 123.58 299.68 127.02 297.16 C129.72 295.2 132.43 293.27 135.15 291.33 C142.19 286.33 149.1 281.19 156 276 C172.58 263.52 172.58 263.52 179.69 262.44 C184.51 263.26 187.4 265.4 190.81 268.81 C193.16 273.13 193.33 276.72 192.12 281.44 C188.75 288.35 181.28 292.98 175 297 C173.33 298.2 171.66 299.41 170 300.62 C165.77 303.72 161.52 306.78 157.25 309.81 C150.36 314.72 143.54 319.72 136.72 324.74 C132.49 327.84 128.24 330.92 124 334 C122.17 335.33 120.33 336.67 118.5 338 C96.5 354 96.5 354 93.77 355.99 C91.88 357.36 89.99 358.73 88.11 360.11 C87.17 360.79 86.22 361.48 85.25 362.19 C84.35 362.86 83.45 363.54 82.52 364.23 C80 366 80 366 77.79 367.02 C75.48 368.13 74.41 368.84 73 371 C72.5 374.26 72.33 377.37 72.27 380.65 C72.04 392.56 70.84 416.16 62 425 C61.88 427.62 61.88 427.62 62 430 C66.56 429.38 70.28 427.53 74.31 425.44 C75.74 424.71 77.16 423.98 78.59 423.26 C79.32 422.88 80.05 422.51 80.8 422.13 C84.31 420.33 87.84 418.57 91.38 416.81 C92.71 416.15 94.04 415.48 95.37 414.82 C106.48 409.26 117.6 403.7 128.72 398.14 C129.33 397.83 129.95 397.53 130.58 397.21 C131.91 396.54 133.25 395.88 134.58 395.21 C138.06 393.47 141.53 391.73 145 389.98 C152.63 386.14 160.31 382.4 168.07 378.79 C172.75 376.61 177.38 374.33 182 372 C183.34 371.33 184.69 370.66 186.03 369.98 C186.69 369.65 187.35 369.32 188.04 368.98 C189.93 368.04 191.82 367.09 193.72 366.14 C194.33 365.83 194.95 365.53 195.58 365.21 C196.91 364.54 198.25 363.88 199.58 363.21 C203.06 361.47 206.53 359.73 210 357.98 C216.77 354.57 223.56 351.25 230.44 348.06 C237.15 344.95 243.7 341.59 250.2 338.06 C254.39 335.79 258.62 333.86 263 332 C265.69 330.7 268.34 329.35 271 328 C272.29 327.36 273.57 326.71 274.86 326.07 C275.49 325.75 276.13 325.44 276.78 325.11 C278.13 324.43 279.49 323.76 280.84 323.08 C284.06 321.47 287.28 319.86 290.49 318.22 C291.53 317.69 292.56 317.17 293.62 316.62 C294.52 316.16 295.42 315.7 296.35 315.23 C301.23 312.97 305.6 311.34 311 312 C314.71 313.47 317.37 315.25 319.94 318.31 C321.69 322.75 321.53 326.46 320 330.94 C319.67 331.62 319.34 332.3 319 333 C318.34 333 317.68 333 317 333 C316.77 333.61 316.53 334.22 316.29 334.84 C314.66 337.57 313.25 338.18 310.37 339.48 C309.9 339.7 309.9 339.7 307.51 340.81 C307 341.03 307 341.03 304.44 342.19 C302.34 343.16 300.25 344.13 298.15 345.11 C297.63 345.35 297.63 345.35 295 346.57 C290.08 348.92 285.28 351.48 280.49 354.09 C276.41 356.31 272.29 358.21 268 360 C266.68 360.63 265.37 361.27 264.06 361.94 C260.05 363.97 256.03 365.99 252 368 C250.76 368.62 249.52 369.24 248.28 369.86 C246.33 370.84 244.37 371.81 242.42 372.79 C238.94 374.53 235.47 376.27 232 378.02 C225.23 381.43 218.44 384.75 211.56 387.94 C205.1 390.94 198.81 394.18 192.54 397.56 C185.59 401.28 178.48 404.63 171.34 407.96 C167.19 409.9 163.09 411.93 159 414 C157.67 414.67 156.33 415.33 155 416 C154.34 416.33 153.68 416.66 153 417 C147 420 147 420 145.11 420.95 C143.79 421.6 142.48 422.26 141.18 422.92 C136.16 425.45 131.09 427.86 126 430.25 C117.93 434.06 109.93 437.99 101.96 442.01 C98.6 443.7 95.24 445.38 91.88 447.06 C90.55 447.73 89.22 448.39 87.9 449.05 C80.16 452.92 80.16 452.92 78.31 453.85 C76.56 454.72 74.8 455.6 73.05 456.48 C71.26 457.37 69.47 458.26 67.67 459.15 C62.69 461.6 57.84 464.27 53 467 C53.52 471.48 54.58 474.4 57 478.19 C61.15 485.04 64.49 492.19 67.86 499.44 C69.59 503.15 71.39 506.8 73.25 510.44 C79.78 523.41 84.87 537.26 89.36 551.05 C90.85 555.55 92.51 559.95 94.5 564.25 C96.18 568.13 97.08 572.14 98.05 576.25 C99 580 100.06 583.71 101.15 587.43 C104.21 597.88 106.81 608.34 109 619 C109.17 619.83 109.35 620.66 109.52 621.51 C111.63 631.64 113.54 641.76 115 652 C115.15 653.05 115.31 654.11 115.47 655.2 C118.96 679.27 120.55 702.83 120.45 727.11 C120.44 729.41 120.43 731.71 120.43 734 C120.38 763.46 118.3 792 113 821 C112.69 822.79 112.37 824.58 112.06 826.38 C109.6 839.74 106.62 852.9 103 866 C102.33 868.54 101.67 871.08 101 873.62 C98.34 883.61 95.24 893.43 91.94 903.21 C91.35 904.97 90.76 906.74 90.19 908.5 C89.94 909.27 89.69 910.03 89.44 910.81 C89.23 911.46 89.02 912.1 88.81 912.77 C87.9 915.27 86.85 917.7 85.79 920.15 C84.52 923.11 83.36 926.12 82.19 929.12 C79.38 936.21 76.25 943.11 73 950 C71.96 952.27 70.92 954.54 69.88 956.81 C65.57 966.12 60.83 975.16 55.97 984.19 C55.12 985.78 54.27 987.37 53.43 988.96 C47.07 1000.83 39.72 1012.04 32.21 1023.2 C30.37 1025.94 28.56 1028.69 26.75 1031.44 C23.65 1036.09 20.41 1040.58 17 1045 C16.31 1045.92 15.61 1046.84 14.9 1047.78 C5.11 1060.66 -5.07 1073.21 -16.18 1084.97 C-18.28 1087.2 -20.29 1089.49 -22.29 1091.8 C-26.31 1096.42 -30.6 1100.75 -34.94 1105.06 C-35.7 1105.83 -36.46 1106.59 -37.24 1107.38 C-43.63 1113.75 -50.35 1119.65 -57.26 1125.45 C-58.63 1126.67 -59.93 1127.95 -61.21 1129.26 C-64.64 1132.63 -68.28 1135.65 -72 1138.69 C-72.75 1139.31 -73.51 1139.92 -74.29 1140.56 C-92.61 1155.5 -111.81 1169.8 -132.41 1181.46 C-135 1183 -135 1183 -137.05 1184.54 C-139.19 1186.14 -141.38 1187.37 -143.75 1188.62 C-147.2 1190.47 -150.63 1192.35 -154.03 1194.29 C-154.73 1194.68 -155.43 1195.08 -156.15 1195.49 C-157.52 1196.27 -158.89 1197.05 -160.25 1197.84 C-164.41 1200.2 -168.58 1202.17 -173 1204 C-174.22 1204.59 -175.43 1205.19 -176.62 1205.81 C-182.34 1208.71 -188.17 1211.34 -194 1214 C-194.77 1214.36 -195.55 1214.72 -196.34 1215.1 C-202.03 1217.72 -207.87 1219.77 -213.78 1221.84 C-216.13 1222.69 -218.41 1223.55 -220.69 1224.56 C-234.63 1230.61 -249.45 1235.23 -264.16 1239 C-266.92 1239.72 -269.66 1240.46 -272.41 1241.25 C-280.81 1243.66 -289.15 1245.76 -297.75 1247.38 C-300.39 1247.88 -303 1248.44 -305.62 1249.06 C-310.28 1250.12 -314.98 1250.8 -319.7 1251.5 C-322.7 1251.96 -325.69 1252.47 -328.69 1253 C-334.66 1254.01 -340.66 1254.68 -346.68 1255.3 C-347.05 1255.34 -347.05 1255.34 -348.9 1255.54 C-349.54 1255.6 -350.19 1255.67 -350.86 1255.73 C-352.52 1255.94 -354.17 1256.21 -355.82 1256.49 C-371.23 1258.95 -387.23 1258.16 -402.78 1258.13 C-406.24 1258.12 -409.7 1258.13 -413.15 1258.13 C-450.6 1258.19 -450.6 1258.19 -464.7 1255.53 C-469.03 1254.83 -473.38 1254.46 -477.75 1254.06 C-486.64 1253.24 -495.25 1251.81 -504 1250 C-505.62 1249.69 -507.25 1249.37 -508.88 1249.06 C-537.46 1243.25 -566.47 1236.09 -593.5 1225 C-596.17 1223.93 -598.86 1222.96 -601.56 1222 C-606.49 1220.23 -611.24 1218.18 -616 1216 C-617.42 1215.37 -618.83 1214.75 -620.25 1214.12 C-628.21 1210.59 -636.16 1207.01 -643.92 1203.05 C-645.54 1202.23 -647.17 1201.43 -648.8 1200.63 C-654.54 1197.82 -660.07 1194.84 -665.52 1191.49 C-668.06 1189.97 -670.64 1188.57 -673.25 1187.19 C-679.5 1183.81 -685.4 1179.96 -691.34 1176.07 C-693.71 1174.54 -696.11 1173.05 -698.5 1171.56 C-723.12 1155.9 -747.65 1136.92 -768 1116 C-769.87 1114.13 -771.8 1112.4 -773.81 1110.69 C-781.48 1104.09 -788.66 1096.79 -795.2 1089.08 C-798.38 1085.4 -801.74 1081.87 -805.06 1078.32 C-807 1076 -807 1076 -807 1074 C-807.99 1073.67 -808.98 1073.34 -810 1073 C-811.78 1070.95 -813.43 1068.91 -815.06 1066.75 C-815.3 1066.44 -815.3 1066.44 -816.53 1064.85 C-817.53 1063.54 -818.53 1062.24 -819.53 1060.93 C-820.9 1059.13 -822.28 1057.35 -823.66 1055.57 C-828.91 1048.81 -834.03 1041.96 -839 1035 C-839.6 1034.17 -840.19 1033.34 -840.8 1032.48 C-848.02 1022.3 -854.5 1011.65 -861 1001 C-861.54 1000.12 -862.08 999.24 -862.63 998.34 C-866.28 992.33 -869.68 986.2 -873 980 C-873.36 979.33 -873.72 978.66 -874.09 977.97 C-875.29 975.73 -876.49 973.49 -877.69 971.25 C-877.88 970.9 -877.88 970.9 -878.84 969.1 C-881.12 964.81 -883.13 960.49 -885 956 C-885.97 953.87 -886.95 951.75 -887.94 949.62 C-888.46 948.49 -888.99 947.35 -889.53 946.18 C-890.37 944.36 -891.22 942.54 -892.07 940.72 C-896.73 930.55 -900.36 919.86 -904.14 909.33 C-904.75 907.68 -905.39 906.04 -906.05 904.41 C-907.26 901.33 -908.11 898.19 -909 895 C-909.66 893 -910.33 891 -911 889 C-915.11 876.18 -918.55 863.23 -921.57 850.12 C-922.49 846.12 -923.49 842.15 -924.56 838.19 C-926.55 830.34 -927.55 822.32 -928.67 814.32 C-928.95 812.38 -929.23 810.45 -929.53 808.52 C-936.39 762.91 -937.09 716.46 -932.12 670.62 C-932.04 669.87 -931.96 669.11 -931.88 668.33 C-930.73 657.77 -929.06 647.42 -927 637 C-926.68 635.21 -926.37 633.42 -926.06 631.62 C-921.97 609.06 -915.9 586.85 -909 565 C-908.68 563.99 -908.36 562.98 -908.04 561.94 C-906.03 555.76 -903.71 549.79 -901.16 543.81 C-900.14 541.33 -899.25 538.87 -898.44 536.31 C-897.22 532.5 -895.69 528.92 -894.02 525.29 C-893.01 523.03 -892.13 520.75 -891.25 518.44 C-888.61 511.78 -885.3 505.46 -882.05 499.08 C-881.05 497.1 -880.07 495.11 -879.09 493.12 C-871.87 478.4 -864.16 463.94 -855.12 450.25 C-852.31 445.94 -849.66 441.55 -847.02 437.13 C-845 434 -842.83 431.05 -840.57 428.09 C-839.03 426.04 -837.54 423.97 -836.06 421.88 C-829.96 413.26 -823.65 404.92 -816.85 396.83 C-813.53 392.89 -810.36 388.88 -807.32 384.72 C-805.43 382.25 -803.22 380.17 -801 378 C-799.26 376.04 -797.55 374.06 -795.84 372.06 C-794.14 370.16 -792.38 368.35 -790.57 366.56 C-788.58 364.58 -786.61 362.59 -784.64 360.6 C-782.99 358.94 -781.34 357.28 -779.69 355.62 C-779.28 355.21 -779.28 355.21 -777.21 353.12 C-772.31 348.2 -767.3 343.49 -762 339 C-761.35 338.45 -760.7 337.9 -760.03 337.33 C-758.93 336.4 -757.84 335.48 -756.74 334.55 C-755.38 333.34 -754.08 332.05 -752.8 330.75 C-749.33 327.34 -745.64 324.27 -741.88 321.19 C-741.12 320.57 -740.36 319.95 -739.59 319.31 C-733.87 314.65 -728.02 310.25 -722 306 C-720.21 304.69 -718.42 303.38 -716.62 302.06 C-689.86 282.62 -661.01 264.53 -630.68 251.18 C-627.57 249.81 -624.51 248.37 -621.44 246.94 C-616.02 244.43 -610.56 242.16 -605 240 C-604.2 239.67 -603.4 239.35 -602.58 239.01 C-596.15 236.37 -589.61 234.15 -583 232 C-578.73 230.6 -574.5 229.19 -570.31 227.56 C-564.34 225.3 -558.16 223.69 -552 222 C-550.8 221.67 -549.6 221.34 -548.36 221 C-535.66 217.55 -522.9 214.53 -510 211.94 C-509.25 211.79 -508.51 211.64 -507.74 211.48 C-505.16 210.97 -502.58 210.48 -500 210 C-498.75 209.76 -497.5 209.53 -496.21 209.29 C-485.97 207.4 -475.73 205.99 -465.38 204.88 C-464.59 204.79 -463.81 204.7 -463 204.62 C-450.01 203.21 -437.08 202.16 -424 202 C-422.77 201.98 -421.55 201.97 -420.28 201.95 C-396.77 201.7 -373.58 202.52 -350.19 204.94 C-349.77 204.98 -349.77 204.98 -347.66 205.2 C-339.32 206.06 -331.16 207.01 -323 209 C-320.61 209.34 -318.21 209.66 -315.81 209.94 C-295.6 212.55 -275.49 218.13 -256 224 C-254.91 224.33 -253.82 224.65 -252.69 224.99 C-242.83 227.99 -233.04 231.09 -223.5 235 C-220.83 236.07 -218.14 237.04 -215.44 238 C-211.27 239.5 -207.25 241.17 -203.22 243.01 C-200.96 244.02 -198.68 244.92 -196.38 245.81 C-186.32 249.81 -176.63 254.59 -167.06 259.62 C-166.38 259.98 -165.69 260.34 -164.99 260.72 C-160.78 262.96 -156.79 265.38 -152.86 268.06 C-151 269 -151 269 -147 269 C-146.47 267.94 -145.94 266.88 -145.39 265.78 C-137.26 249.52 -129.13 233.26 -121 217 C-120.84 216.69 -120.84 216.69 -120.05 215.11 C-119.4 213.79 -118.74 212.48 -118.08 211.18 C-115.55 206.16 -113.14 201.09 -110.75 196 C-106.95 187.93 -103.02 179.94 -99 171.98 C-97.26 168.53 -95.54 165.08 -93.81 161.62 C-93.15 160.29 -92.48 158.96 -91.82 157.63 C-91.51 157.01 -91.2 156.39 -90.88 155.75 C-75.14 124.28 -75.14 124.28 -74.21 122.42 C-73.54 121.09 -72.88 119.75 -72.21 118.42 C-70.47 114.94 -68.73 111.47 -66.98 108 C-63.57 101.23 -60.25 94.44 -57.06 87.56 C-53.95 80.85 -50.59 74.3 -47.06 67.8 C-44.79 63.61 -42.86 59.38 -41 55 C-39.71 52.31 -38.35 49.66 -37 47 C-33.2 39.48 -29.42 31.97 -25.89 24.32 C-16.32 3.63 -16.32 3.63 -9.01 -0.29 C-5.63 -1.48 -3.37 -1.06 0 0 Z M-455.25 247.81 C-455.67 247.85 -455.67 247.85 -457.82 248.06 C-467.5 249.04 -477.03 250.43 -486.59 252.33 C-489.68 252.94 -492.76 253.46 -495.88 253.94 C-513.83 256.88 -531.68 261.5 -549 267 C-551.25 267.69 -553.5 268.38 -555.75 269.06 C-565.33 272.02 -574.66 275.34 -584 279 C-584.86 279.33 -585.71 279.66 -586.6 280 C-593.54 282.71 -600.26 285.85 -607 289 C-609.27 290.04 -611.54 291.08 -613.81 292.12 C-635.21 302.02 -656.1 313.49 -675.34 327.12 C-678.34 329.24 -681.36 331.3 -684.38 333.38 C-699.25 343.65 -713.58 354.88 -727 367 C-727.81 367.73 -728.62 368.46 -729.45 369.21 C-731.17 370.76 -732.89 372.31 -734.61 373.86 C-737.14 376.13 -739.72 378.34 -742.33 380.52 C-746.81 384.51 -750.83 388.95 -754.88 393.38 C-758.08 396.87 -761.28 400.33 -764.69 403.62 C-768.28 407.16 -771.39 411.06 -774.55 414.98 C-776.68 417.61 -778.85 420.18 -781.04 422.75 C-789.32 432.41 -797.05 442.32 -804.01 452.98 C-806.09 456.14 -808.26 459.22 -810.44 462.31 C-816.85 471.54 -822.44 481.24 -828 491 C-828.62 492.07 -829.24 493.14 -829.88 494.25 C-835.9 504.8 -841.36 515.52 -846.42 526.56 C-847.47 528.84 -848.52 531.11 -849.58 533.38 C-849.83 533.92 -849.83 533.92 -851.12 536.69 C-851.58 537.66 -852.04 538.63 -852.51 539.64 C-859.44 555.25 -865.28 571.59 -870 588 C-870.48 589.62 -870.95 591.24 -871.43 592.86 C-874.28 602.59 -876.9 612.34 -879.13 622.23 C-879.87 625.45 -880.7 628.63 -881.56 631.81 C-883.73 640.41 -884.8 649.23 -886 658 C-886.17 659.25 -886.35 660.5 -886.53 661.79 C-886.96 665.04 -887.34 668.3 -887.71 671.56 C-887.92 673.3 -888.14 675.04 -888.38 676.78 C-892.94 710.58 -892.51 745.36 -889.19 779.25 C-889.1 780.1 -889.02 780.94 -888.94 781.82 C-887.85 792.67 -886.14 803.3 -884 814 C-883.68 815.77 -883.37 817.54 -883.06 819.31 C-880.63 832.69 -877.69 845.91 -874 859 C-873.65 860.26 -873.29 861.53 -872.93 862.83 C-871.39 868.26 -869.79 873.64 -868 879 C-867.6 880.28 -867.21 881.56 -866.82 882.84 C-866.61 883.51 -866.41 884.18 -866.19 884.87 C-865.77 886.24 -865.36 887.62 -864.94 888.99 C-863.57 893.47 -861.89 897.71 -860 902 C-859.04 904.44 -858.08 906.87 -857.12 909.31 C-855.06 914.54 -852.84 919.6 -850.18 924.56 C-849.18 926.62 -848.38 928.63 -847.6 930.79 C-846.05 935.02 -844.12 938.99 -842.06 943 C-841.39 944.33 -840.71 945.67 -840.04 947 C-839.7 947.66 -839.37 948.31 -839.02 948.99 C-837.98 951.04 -836.96 953.09 -835.93 955.15 C-833.43 960.18 -830.72 965.09 -828 970 C-827.38 971.13 -826.76 972.27 -826.12 973.44 C-823.63 977.78 -820.74 981.87 -817.94 986.02 C-816.34 988.48 -814.92 990.91 -813.56 993.5 C-810.95 998.35 -807.66 1002.6 -804.32 1006.96 C-802.19 1009.76 -800.11 1012.58 -798.06 1015.44 C-794.66 1020.14 -791.15 1024.76 -787.59 1029.35 C-784.7 1033.08 -781.89 1036.86 -779.16 1040.71 C-778.77 1041.13 -778.39 1041.56 -778 1042 C-777.34 1042 -776.68 1042 -776 1042 C-775.75 1042.56 -775.5 1043.11 -775.25 1043.69 C-773.77 1046.42 -772.07 1048.68 -770 1051 C-769.34 1051 -768.68 1051 -768 1051 C-767.74 1051.58 -767.48 1052.16 -767.21 1052.75 C-765.93 1055.14 -764.49 1056.92 -762.69 1058.94 C-762.11 1059.59 -761.54 1060.23 -760.95 1060.9 C-758.69 1063.33 -756.35 1065.66 -754 1068 C-753.14 1068.87 -752.28 1069.75 -751.39 1070.65 C-746.7 1075.39 -741.97 1079.99 -736.89 1084.32 C-734.84 1086.14 -732.92 1088.05 -731 1090 C-718.33 1102.79 -703.76 1113.75 -689 1124 C-688.15 1124.6 -687.31 1125.2 -686.43 1125.82 C-664.35 1141.47 -641.33 1155.39 -616.81 1166.88 C-616.07 1167.22 -615.33 1167.57 -614.57 1167.93 C-613.08 1168.62 -611.58 1169.32 -610.09 1170.02 C-608.24 1170.89 -606.39 1171.76 -604.54 1172.64 C-592.96 1178.08 -581.08 1182.8 -569 1187 C-568.38 1187.22 -567.76 1187.43 -567.12 1187.66 C-550.58 1193.37 -533.84 1198.27 -516.77 1202.13 C-513.53 1202.88 -510.33 1203.7 -507.12 1204.56 C-498.86 1206.65 -490.42 1207.78 -482 1209 C-480.82 1209.17 -479.64 1209.35 -478.43 1209.53 C-475.44 1209.95 -472.45 1210.33 -469.45 1210.7 C-467.71 1210.91 -465.97 1211.13 -464.23 1211.35 C-446.03 1213.65 -428.07 1214.53 -409.74 1214.45 C-407.65 1214.44 -405.57 1214.43 -403.48 1214.43 C-376.81 1214.38 -350.4 1213.16 -324.22 1207.67 C-321.38 1207.08 -318.55 1206.55 -315.69 1206.06 C-289.55 1201.36 -263.87 1193.8 -238.94 1184.75 C-238.5 1184.59 -238.5 1184.59 -236.29 1183.79 C-230.76 1181.74 -225.37 1179.45 -220 1177 C-218.5 1176.33 -217 1175.67 -215.5 1175 C-214.75 1174.66 -213.99 1174.33 -213.22 1173.98 C-211.82 1173.37 -210.43 1172.75 -209.03 1172.14 C-197.11 1166.92 -185.31 1161.44 -174 1155 C-173.69 1154.83 -173.69 1154.83 -172.13 1153.95 C-159.11 1146.62 -159.11 1146.62 -153.25 1142.31 C-150 1140 -150 1140 -147.16 1138.59 C-138.87 1134.42 -131.33 1128.67 -124 1123 C-122.49 1121.84 -120.98 1120.68 -119.47 1119.53 C-117.79 1118.23 -116.11 1116.93 -114.43 1115.64 C-112.2 1113.91 -109.95 1112.21 -107.7 1110.52 C-101.03 1105.51 -94.79 1100.23 -88.71 1094.53 C-86.45 1092.42 -84.16 1090.38 -81.81 1088.38 C-78.07 1085.14 -74.63 1081.65 -71.16 1078.12 C-69.29 1076.29 -67.39 1074.6 -65.38 1072.94 C-62.16 1070.26 -59.52 1067.25 -56.82 1064.07 C-54.41 1061.32 -51.82 1058.79 -49.19 1056.25 C-37.77 1044.51 -27.43 1031.36 -18 1018 C-16.71 1016.25 -15.42 1014.5 -14.12 1012.75 C-7.22 1003.26 -0.82 993.4 5.42 983.46 C6.9 981.16 8.44 978.93 10 976.69 C12.75 972.58 14.95 968.29 17.11 963.86 C19.23 959.5 21.47 955.22 23.75 950.95 C27.78 943.43 31.46 935.94 34.71 928.04 C35.85 925.35 37.12 922.82 38.5 920.25 C41.26 914.89 43.04 909.24 44.86 903.51 C46.33 898.87 48.08 894.47 50 890 C50.9 887.39 51.71 884.76 52.5 882.12 C52.94 880.7 53.37 879.28 53.81 877.86 C54.01 877.18 54.22 876.51 54.43 875.82 C55.1 873.68 55.82 871.56 56.56 869.44 C60.35 858.19 62.88 846.51 65.54 834.95 C65.95 833.21 66.38 831.47 66.81 829.74 C78.16 783.58 79.26 733.79 75.19 686.69 C75.1 685.72 75.02 684.76 74.94 683.77 C73.99 672.92 72.71 662.23 70.67 651.54 C70.07 648.38 69.55 645.23 69.06 642.06 C67.72 633.97 65.85 625.99 64 618 C63.71 616.75 63.43 615.49 63.13 614.2 C58.62 595.26 53.18 575.64 45.44 557.75 C44.03 554.46 42.66 551.18 41.44 547.81 C39.83 543.45 37.92 539.24 36 535 C35.42 533.67 34.83 532.33 34.25 531 C27.64 516.17 20.48 501.86 12 488 C6.3 489.1 1.32 490.62 -4 493 C-6.68 494.01 -9.37 494.97 -12.06 495.94 C-13.66 496.52 -15.26 497.1 -16.84 497.74 C-43.56 508.29 -76.81 505.42 -103 495 C-103.43 494.85 -103.43 494.85 -105.63 494.07 C-122.18 488.04 -142.09 475.87 -152 461 C-152.66 461 -153.32 461 -154 461 C-154.12 460.74 -154.12 460.74 -154.71 459.42 C-156.08 456.86 -157.67 454.51 -159.33 452.13 C-173.46 431.69 -182.36 409 -183 384 C-183.04 383.05 -183.08 382.11 -183.12 381.13 C-183.67 358.48 -178.48 338.76 -169.85 318.05 C-168.88 315.71 -167.93 313.36 -167 311 C-167.87 310.24 -168.73 309.47 -169.62 308.69 C-170.11 308.26 -170.6 307.83 -171.1 307.39 C-173.59 305.57 -176.23 304.35 -179 303 C-180.43 302.25 -181.86 301.49 -183.29 300.73 C-195.62 294.16 -207.96 288.06 -221 283 C-222.63 282.36 -224.25 281.71 -225.88 281.06 C-226.7 280.74 -227.52 280.41 -228.36 280.07 C-231.28 278.89 -234.17 277.66 -237.06 276.44 C-241.98 274.38 -246.91 272.58 -252 271 C-252.45 270.86 -252.45 270.86 -254.71 270.14 C-261.71 267.95 -268.76 265.9 -275.81 263.88 C-276.7 263.62 -277.58 263.37 -278.49 263.11 C-283.64 261.64 -288.79 260.25 -294 259 C-294.78 258.81 -295.57 258.62 -296.38 258.43 C-309.18 255.36 -321.96 252.8 -335 251 C-335.61 250.91 -335.61 250.91 -338.72 250.48 C-342.01 250.05 -345.3 249.66 -348.59 249.29 C-351.27 248.97 -353.94 248.59 -356.62 248.21 C-389.12 243.94 -422.69 244.62 -455.25 247.81 Z M-102 287 C-102.91 287.48 -103.82 287.96 -104.76 288.45 C-114.61 293.84 -122.15 301.08 -130 309 C-130.72 309.72 -131.44 310.44 -132.18 311.18 C-141.77 321.3 -147.56 332.89 -152 346 C-152.31 346.9 -152.62 347.79 -152.93 348.72 C-155.95 358.06 -156.16 367.24 -156.12 377 C-156.13 378.03 -156.13 379.06 -156.14 380.12 C-156.1 407.25 -143.96 431.38 -124.97 450.47 C-118.96 456.26 -112.11 460.68 -105 465 C-104.15 465.52 -103.31 466.05 -102.43 466.59 C-80.36 479.58 -53.53 480.59 -29.24 474.59 C-15.75 471.02 -2.7 463.98 8 455 C8.8 454.33 9.6 453.67 10.42 452.98 C16.38 447.83 21.32 442.32 26 436 C26.62 435.19 27.24 434.37 27.88 433.53 C34.98 423.86 38.8 413.49 42 402 C42.15 401.53 42.15 401.53 42.91 399.13 C48.89 378.09 45.31 354.47 36 335 C35.85 334.66 35.85 334.66 35.07 332.91 C30.18 322.36 22.98 313.36 15 305 C14.46 304.39 13.92 303.77 13.37 303.14 C-2.94 285.28 -28.65 277.34 -52 276 C-69.49 275.41 -86.66 278.29 -102 287 Z " fill="#FFFFFF" transform="translate(1479,1430)"/><path d="M0 0 C2.28 2.17 4.28 4.39 6.27 6.83 C6.58 7.21 6.58 7.21 8.18 9.1 C13.47 15.9 16.18 23.54 18.27 31.83 C18.39 32.3 18.39 32.3 19.02 34.66 C21.9 47.01 21.74 59.3 21.78 71.92 C21.79 74.32 21.81 76.72 21.83 79.12 C21.88 85.39 21.91 91.66 21.94 97.93 C21.97 104.34 22.01 110.76 22.06 117.17 C22.14 129.73 22.21 142.28 22.27 154.83 C17.69 156.84 13.87 157.03 8.94 156.84 C8.15 156.82 7.36 156.8 6.54 156.78 C4.88 156.73 3.22 156.67 1.56 156.61 C-0.99 156.52 -3.54 156.44 -6.09 156.37 C-7.71 156.32 -9.32 156.27 -10.94 156.22 C-11.7 156.2 -12.47 156.17 -13.26 156.15 C-18.62 155.95 -18.62 155.95 -19.73 154.83 C-19.85 152.04 -19.9 149.27 -19.91 146.48 C-19.91 145.6 -19.92 144.73 -19.93 143.82 C-19.94 141.91 -19.95 140 -19.96 138.09 C-19.98 135.05 -20 132.01 -20.03 128.98 C-20.1 120.34 -20.16 111.7 -20.21 103.06 C-20.24 97.79 -20.28 92.51 -20.33 87.23 C-20.35 85.22 -20.36 83.22 -20.37 81.21 C-20.51 48.61 -20.51 48.61 -28.3 40.12 C-36.39 32.69 -46.11 31.41 -56.73 31.83 C-64.02 32.88 -70.87 34.54 -75.86 40.27 C-76.48 41.12 -77.1 41.96 -77.73 42.83 C-78.23 43.44 -78.73 44.06 -79.25 44.69 C-86.02 54.47 -84.17 69.23 -84.13 80.55 C-84.13 82.65 -84.14 84.75 -84.14 86.86 C-84.15 91.25 -84.14 95.65 -84.13 100.04 C-84.11 105.64 -84.12 111.24 -84.14 116.84 C-84.15 121.18 -84.14 125.52 -84.14 129.86 C-84.13 131.92 -84.14 133.98 -84.14 136.05 C-84.19 152.84 -83.59 165.65 -72.8 179.27 C-72.31 179.88 -71.83 180.49 -71.33 181.12 C-62.64 192.01 -53.58 202.22 -43.61 211.97 C-40.57 214.95 -37.6 217.89 -34.91 221.18 C-32.89 223.64 -30.77 225.47 -28.3 227.45 C-26.6 228.95 -25.2 230.54 -23.73 232.27 C-19.58 237.18 -14.97 241.62 -10.36 246.08 C-10.06 246.38 -10.06 246.38 -8.55 247.86 C-8.28 248.12 -8.28 248.12 -6.91 249.45 C-5.73 250.83 -5.73 250.83 -5.73 252.83 C-4.74 253.16 -3.75 253.49 -2.73 253.83 C14.98 274.1 22.42 296.75 22.41 323.33 C22.41 324.44 22.42 325.54 22.42 326.68 C22.43 330.3 22.43 333.92 22.43 337.54 C22.44 340.08 22.44 342.61 22.44 345.15 C22.45 350.45 22.45 355.76 22.45 361.06 C22.45 367.16 22.46 373.26 22.48 379.37 C22.49 385.27 22.49 391.18 22.49 397.08 C22.5 399.58 22.5 402.07 22.51 404.57 C22.52 408.07 22.51 411.57 22.51 415.07 C22.51 416.09 22.52 417.1 22.53 418.15 C22.5 425.21 21.62 431.91 20.27 438.83 C20.06 439.87 19.86 440.9 19.65 441.97 C17.99 450.07 14.54 456.79 10.27 463.83 C9.81 464.58 9.36 465.34 8.9 466.11 C-0.14 479.59 -15.66 485.26 -30.73 488.83 C-34.42 489.5 -38 489.73 -41.73 489.83 C-42.48 489.85 -43.22 489.87 -43.98 489.89 C-67.37 490.45 -90.8 489.05 -108.98 472.21 C-128.8 450.91 -129.36 422.5 -129.16 395.12 C-129.16 392.54 -129.15 389.95 -129.15 387.36 C-129.14 381.98 -129.12 376.61 -129.09 371.24 C-129.05 364.34 -129.03 357.44 -129.02 350.54 C-129.01 343.94 -128.99 337.35 -128.97 330.75 C-128.97 329.49 -128.97 328.23 -128.96 326.93 C-128.95 323.4 -128.93 319.87 -128.91 316.34 C-128.91 315.28 -128.91 314.22 -128.9 313.14 C-128.9 312.18 -128.89 311.23 -128.88 310.25 C-128.88 309.41 -128.87 308.58 -128.87 307.72 C-128.73 305.83 -128.73 305.83 -127.73 304.83 C-124.7 304.74 -121.7 304.72 -118.67 304.73 C-117.76 304.74 -116.85 304.74 -115.91 304.74 C-113 304.74 -110.09 304.76 -107.17 304.77 C-105.2 304.77 -103.23 304.78 -101.26 304.78 C-96.42 304.79 -91.58 304.81 -86.73 304.83 C-85.52 309.56 -85.61 314.15 -85.64 318.99 C-85.64 319.9 -85.64 320.82 -85.64 321.76 C-85.64 323.74 -85.65 325.73 -85.66 327.71 C-85.67 330.86 -85.68 334.01 -85.68 337.16 C-85.7 345 -85.72 352.83 -85.74 360.66 C-85.76 367.27 -85.78 373.88 -85.79 380.49 C-85.8 383.57 -85.81 386.65 -85.82 389.74 C-85.92 426.67 -85.92 426.67 -75.55 438.37 C-67.23 445.06 -57.44 446.17 -47.05 445.64 C-39.92 444.72 -33.91 443.59 -29.09 437.89 C-21.23 426.91 -21.31 416.11 -21.41 403.17 C-21.41 401.33 -21.41 399.49 -21.41 397.65 C-21.42 393.8 -21.43 389.95 -21.45 386.1 C-21.48 381.23 -21.49 376.37 -21.5 371.5 C-21.53 338.42 -21.53 338.42 -22.15 323.04 C-22.18 322.17 -22.21 321.29 -22.25 320.39 C-23.11 302.74 -33.58 290.54 -44.73 277.83 C-45.35 277.11 -45.97 276.39 -46.61 275.65 C-57.51 263.02 -69.21 251.27 -81.09 239.57 C-83.18 237.51 -85.26 235.45 -87.34 233.39 C-87.98 232.76 -88.63 232.13 -89.29 231.48 C-90.81 229.97 -92.28 228.4 -93.73 226.83 C-93.73 226.17 -93.73 225.51 -93.73 224.83 C-94.03 224.7 -94.03 224.7 -95.53 224.05 C-97.94 222.72 -99.23 221.38 -100.98 219.27 C-103.58 216.2 -106.22 213.18 -108.92 210.21 C-111.86 206.9 -114.41 203.6 -116.73 199.83 C-117.13 199.24 -117.53 198.65 -117.94 198.04 C-129.49 180.57 -129.2 160.73 -129.17 140.54 C-129.17 138.11 -129.18 135.67 -129.18 133.24 C-129.19 128.15 -129.19 123.07 -129.18 117.98 C-129.17 111.53 -129.19 105.07 -129.22 98.62 C-129.24 93.59 -129.24 88.57 -129.23 83.54 C-129.23 81.16 -129.24 78.79 -129.25 76.41 C-129.37 50.44 -127.42 26.09 -109.23 6.08 C-108.41 5.34 -107.58 4.6 -106.73 3.83 C-106.14 3.27 -105.55 2.71 -104.93 2.12 C-100.52 -1.95 -96.31 -4.92 -90.73 -7.17 C-89.91 -7.51 -89.08 -7.84 -88.23 -8.19 C-61.21 -18.19 -23.43 -18.58 0 0 Z " fill="#FFFFFF" transform="translate(2025.734375,1819.16796875)"/><path d="M0 0 C0.92 0.6 1.84 1.2 2.79 1.82 C19.08 13.02 25.96 28.66 30.39 47.47 C31.81 55.67 32.15 63.9 32.15 72.21 C32.15 73.17 32.15 74.12 32.16 75.1 C32.16 78.22 32.17 81.33 32.17 84.44 C32.17 86.62 32.17 88.79 32.18 90.97 C32.18 95.51 32.19 100.05 32.19 104.59 C32.19 110.42 32.2 116.25 32.22 122.07 C32.23 126.56 32.23 131.04 32.23 135.52 C32.23 137.68 32.23 139.83 32.24 141.98 C32.25 144.97 32.25 147.96 32.24 150.95 C32.25 151.84 32.25 152.74 32.26 153.65 C32.23 159.77 32.23 159.77 30 162 C27.3 162.2 24.7 162.28 22 162.27 C21.6 162.27 21.6 162.27 19.6 162.27 C17.93 162.27 16.25 162.27 14.58 162.26 C12.01 162.25 9.44 162.26 6.88 162.27 C5.25 162.27 3.62 162.27 2 162.27 C1.23 162.27 0.46 162.27 -0.34 162.28 C-5.77 162.23 -5.77 162.23 -8 160 C-8.18 157.3 -8.24 154.71 -8.21 152.01 C-8.21 151.18 -8.21 150.36 -8.21 149.5 C-8.2 146.76 -8.18 144.01 -8.16 141.27 C-8.15 139.35 -8.15 137.44 -8.14 135.52 C-8.13 130.46 -8.11 125.41 -8.08 120.35 C-8.04 112.3 -8.01 104.24 -7.98 96.19 C-7.97 93.39 -7.96 90.6 -7.94 87.8 C-7.77 54.32 -7.77 54.32 -15.49 45.25 C-17 43.94 -17 43.94 -20 42 C-20.87 41.42 -21.73 40.85 -22.62 40.25 C-27.71 37.58 -32.7 37.82 -38.31 37.81 C-39.14 37.8 -39.97 37.79 -40.83 37.78 C-49.88 37.75 -56.31 39.87 -63 46 C-73.83 57.95 -72.15 74.33 -72.13 89.43 C-72.13 90.82 -72.13 92.22 -72.13 93.62 C-72.14 97.42 -72.13 101.21 -72.13 105.01 C-72.13 109.12 -72.13 113.23 -72.13 117.34 C-72.14 125.38 -72.14 133.42 -72.14 141.45 C-72.13 147.99 -72.13 154.52 -72.13 161.06 C-72.13 161.53 -72.13 161.53 -72.13 163.89 C-72.13 165.78 -72.13 167.67 -72.14 169.57 C-72.14 187.31 -72.13 205.04 -72.13 222.78 C-72.12 237.98 -72.13 253.18 -72.13 268.38 C-72.14 286.06 -72.14 303.74 -72.13 321.41 C-72.13 323.3 -72.13 325.19 -72.13 327.07 C-72.13 328 -72.13 328.93 -72.13 329.89 C-72.13 336.41 -72.13 342.93 -72.14 349.46 C-72.14 357.41 -72.14 365.37 -72.13 373.32 C-72.13 377.38 -72.13 381.43 -72.13 385.49 C-72.14 389.2 -72.13 392.92 -72.13 396.64 C-72.13 398.61 -72.13 400.57 -72.13 402.54 C-72.07 432.26 -72.07 432.26 -61.1 444.12 C-56.4 448.33 -52.14 449.65 -45.94 450.31 C-45.19 450.39 -44.44 450.48 -43.66 450.56 C-33.77 451.48 -24.86 450.51 -17 444 C-8.88 436.33 -8.32 424.47 -8 414 C-7.89 407.24 -7.94 400.48 -7.99 393.72 C-8.01 390.36 -8.02 387.01 -8.03 383.65 C-8.07 374.11 -8.11 364.57 -8.17 355.04 C-8.21 349.18 -8.23 343.32 -8.25 337.46 C-8.25 335.23 -8.27 333.01 -8.29 330.78 C-8.31 327.68 -8.32 324.58 -8.32 321.48 C-8.34 320.56 -8.35 319.64 -8.36 318.69 C-8.36 317.85 -8.36 317.01 -8.35 316.14 C-8.36 315.41 -8.36 314.68 -8.37 313.92 C-7.88 311.4 -7.05 310.52 -5 309 C-2.2 308.8 0.35 308.77 3.13 308.89 C3.93 308.91 4.72 308.94 5.53 308.96 C7.21 309.02 8.88 309.08 10.55 309.15 C13.12 309.25 15.69 309.33 18.26 309.41 C19.89 309.46 21.51 309.52 23.13 309.58 C23.91 309.6 24.68 309.63 25.47 309.66 C30.88 309.88 30.88 309.88 32 311 C32.1 312.44 32.13 313.89 32.13 315.34 C32.14 315.81 32.14 315.81 32.15 318.18 C32.15 319.22 32.15 320.26 32.15 321.32 C32.15 322.41 32.15 323.5 32.16 324.62 C32.16 328.24 32.17 331.85 32.17 335.47 C32.17 337.99 32.17 340.5 32.18 343.02 C32.18 348.31 32.19 353.61 32.19 358.9 C32.18 364.98 32.2 371.07 32.21 377.15 C32.23 383.02 32.23 388.9 32.23 394.77 C32.23 397.26 32.23 399.74 32.24 402.23 C32.32 430.39 31.12 457.89 10.75 479.48 C7.97 482.02 5.19 484.01 2 486 C1.18 486.53 0.37 487.07 -0.47 487.62 C-3.39 489.22 -6.25 490.17 -9.44 491.12 C-10.53 491.46 -11.62 491.79 -12.75 492.13 C-18.49 493.66 -23.97 494.16 -29.89 494.17 C-30.64 494.17 -31.38 494.17 -32.15 494.18 C-33.72 494.18 -35.29 494.19 -36.86 494.19 C-39.23 494.19 -41.6 494.21 -43.97 494.22 C-51.84 494.25 -59.35 494.07 -67 492 C-67.94 491.78 -68.88 491.55 -69.85 491.32 C-79.01 488.69 -86.71 484.1 -94 478 C-94.73 477.39 -95.46 476.78 -96.22 476.14 C-112.86 460.96 -115.91 439.35 -117 418 C-117.32 407.39 -117.28 396.77 -117.26 386.15 C-117.26 381.93 -117.26 377.7 -117.27 373.48 C-117.28 365.25 -117.28 357.01 -117.27 348.77 C-117.27 342.07 -117.27 335.37 -117.27 328.66 C-117.27 327.7 -117.27 326.74 -117.27 325.76 C-117.27 323.81 -117.27 321.86 -117.27 319.91 C-117.28 301.69 -117.27 283.48 -117.26 265.26 C-117.25 249.67 -117.25 234.09 -117.26 218.51 C-117.27 200.35 -117.28 182.19 -117.27 164.03 C-117.27 162.09 -117.27 160.14 -117.27 158.2 C-117.27 157.25 -117.27 156.29 -117.27 155.31 C-117.26 148.63 -117.27 141.94 -117.27 135.26 C-117.28 127.1 -117.28 118.94 -117.27 110.77 C-117.26 106.62 -117.26 102.47 -117.27 98.32 C-117.36 33.78 -117.36 33.78 -98 12 C-74.24 -9.79 -28.43 -19.11 0 0 Z " fill="#FFFFFF" transform="translate(2604,1814)"/><path d="M0 0 C25.73 26.33 20.54 69.07 20.27 102.75 C20.23 109.57 20.21 116.38 20.18 123.2 C20.15 133.47 20.07 143.73 20 154 C6.14 154 -7.72 154 -22 154 C-22.05 147.17 -22.1 140.35 -22.15 133.32 C-22.18 128.98 -22.22 124.65 -22.26 120.31 C-22.32 113.44 -22.38 106.57 -22.42 99.69 C-22.46 94.15 -22.51 88.61 -22.56 83.06 C-22.58 80.95 -22.59 78.84 -22.6 76.73 C-22.62 73.76 -22.65 70.8 -22.68 67.83 C-22.68 66.97 -22.69 66.1 -22.69 65.21 C-22.84 54.3 -25.33 44.12 -33 36 C-40.07 29.81 -49.33 29.73 -58.31 30.19 C-67.12 31.04 -72.77 33.68 -79 40 C-85.14 47.5 -86.45 56.48 -86.42 65.89 C-86.42 66.36 -86.42 66.36 -86.45 68.72 C-86.47 71.78 -86.47 74.83 -86.47 77.89 C-86.48 80.03 -86.48 82.18 -86.49 84.33 C-86.51 88.82 -86.51 93.31 -86.5 97.8 C-86.5 103.52 -86.53 109.24 -86.57 114.95 C-86.59 119.39 -86.59 123.82 -86.59 128.25 C-86.59 130.36 -86.6 132.46 -86.62 134.57 C-86.76 152.38 -84.81 165.89 -73 180 C-72.15 181.04 -71.31 182.07 -70.46 183.11 C-58.41 197.72 -45.07 211.04 -31.59 224.32 C-29.51 226.37 -27.43 228.42 -25.36 230.48 C-24.72 231.11 -24.08 231.73 -23.42 232.38 C-21.91 233.88 -20.45 235.44 -19 237 C-19 237.66 -19 238.32 -19 239 C-18.41 239.26 -17.81 239.51 -17.2 239.78 C-14.79 241.12 -13.51 242.45 -11.75 244.56 C-9.27 247.51 -6.74 250.36 -4.12 253.19 C2.65 260.81 9.07 269.54 13 279 C13.34 279.78 13.67 280.56 14.02 281.37 C18.43 292.46 20.07 303.91 20.57 315.75 C20.61 316.67 20.66 317.58 20.7 318.52 C21.1 328.2 21.15 337.87 21.13 347.55 C21.13 349.44 21.13 351.32 21.14 353.21 C21.14 357.12 21.14 361.02 21.13 364.93 C21.12 369.9 21.13 374.86 21.13 379.83 C21.14 383.7 21.14 387.58 21.13 391.45 C21.13 393.28 21.13 395.11 21.14 396.94 C21.17 426.28 21.17 426.28 18.25 437.75 C18.08 438.46 17.9 439.16 17.72 439.89 C13.54 456.12 3.98 469.68 -10 479 C-10.39 479.28 -10.39 479.28 -12.38 480.69 C-16.41 482.71 -20.66 483.82 -25 485 C-25.67 485.2 -26.35 485.39 -27.04 485.6 C-48.77 491.63 -77.82 489.86 -97.88 479.52 C-109.06 473.05 -118.06 464.08 -123 452 C-123.34 451.18 -123.67 450.36 -124.02 449.52 C-131.56 429.97 -131.15 410.36 -131.13 389.74 C-131.13 387.3 -131.13 384.85 -131.14 382.41 C-131.14 377.32 -131.14 372.22 -131.13 367.13 C-131.12 360.59 -131.13 354.06 -131.13 347.52 C-131.14 342.49 -131.14 337.45 -131.13 332.42 C-131.13 330.01 -131.13 327.6 -131.14 325.19 C-131.14 321.83 -131.13 318.47 -131.13 315.12 C-131.13 314.12 -131.13 313.12 -131.14 312.09 C-131.13 311.18 -131.13 310.27 -131.13 309.33 C-131.13 308.54 -131.13 307.74 -131.13 306.93 C-131 305 -131 305 -130 303 C-124.18 302.98 -118.36 302.96 -112.54 302.95 C-110.56 302.94 -108.57 302.93 -106.59 302.92 C-103.75 302.91 -100.91 302.91 -98.07 302.9 C-97.17 302.9 -96.28 302.89 -95.36 302.89 C-93.24 302.89 -91.12 302.94 -89 303 C-87.44 304.56 -87.87 306.07 -87.86 308.24 C-87.85 309.15 -87.84 310.06 -87.83 311.01 C-87.83 312.02 -87.83 313.03 -87.83 314.07 C-87.82 315.13 -87.81 316.19 -87.81 317.28 C-87.79 319.58 -87.78 321.89 -87.77 324.2 C-87.75 327.86 -87.73 331.52 -87.71 335.17 C-87.63 345.58 -87.57 355.98 -87.52 366.38 C-87.49 372.73 -87.45 379.09 -87.4 385.45 C-87.39 387.87 -87.37 390.29 -87.37 392.71 C-87.35 396.1 -87.33 399.5 -87.3 402.9 C-87.3 403.89 -87.3 404.89 -87.3 405.91 C-87.19 416.21 -85.5 426.65 -78.69 434.75 C-78.24 435.12 -78.24 435.12 -76 437 C-75.07 437.89 -74.14 438.77 -73.19 439.69 C-65.86 444.73 -54.49 444.47 -46 443.44 C-38.85 442.04 -33.64 439.47 -29.19 433.62 C-28.43 432.43 -27.7 431.22 -27 430 C-26.42 429.01 -25.84 428.02 -25.25 427 C-20.77 415.57 -22.88 399.78 -22.98 387.7 C-22.99 386.75 -22.99 385.81 -23 384.83 C-23.04 379.83 -23.08 374.83 -23.13 369.83 C-23.18 364.73 -23.21 359.62 -23.23 354.51 C-23.25 350.53 -23.29 346.55 -23.33 342.57 C-23.35 340.69 -23.36 338.81 -23.36 336.93 C-23.39 327.51 -23.78 318.43 -25.75 309.2 C-25.9 308.49 -26.05 307.77 -26.2 307.04 C-27.77 300.48 -31.06 295.24 -34.98 289.82 C-37 287 -37 287 -38.09 284.68 C-39 283 -39 283 -42 282 C-43.37 280.47 -44.68 278.87 -45.94 277.25 C-53.63 267.63 -62.09 258.73 -70.9 250.13 C-73.29 247.8 -75.53 245.41 -77.64 242.83 C-79.49 240.61 -81.13 238.89 -83.38 237.12 C-85.87 235.05 -88.02 232.92 -90.12 230.44 C-93.35 226.64 -96.82 223.17 -100.38 219.69 C-106.02 214.11 -111.14 208.28 -116 202 C-116.29 201.64 -116.29 201.64 -117.74 199.82 C-132.96 180.36 -131.16 155.5 -131.13 132.09 C-131.13 130.02 -131.13 127.95 -131.14 125.88 C-131.14 121.57 -131.14 117.26 -131.13 112.95 C-131.12 107.47 -131.13 101.99 -131.13 96.51 C-131.14 92.25 -131.14 87.98 -131.13 83.72 C-131.13 81.7 -131.13 79.68 -131.14 77.66 C-131.16 46.73 -131.16 46.73 -128.25 35.19 C-128.16 34.83 -128.16 34.83 -127.72 33.04 C-126.23 27.26 -124.09 22.11 -121 17 C-120.42 16.01 -119.84 15.02 -119.25 14 C-106.16 -3.46 -90.89 -11.89 -69.48 -15.12 C-45.26 -18.38 -19.5 -15.81 0 0 Z " fill="#FFFFFF" transform="translate(3731,1821)"/><path d="M0 0 C2.95 -0.37 2.95 -0.37 6.79 -0.36 C7.49 -0.36 8.19 -0.36 8.91 -0.36 C11.24 -0.37 13.57 -0.35 15.9 -0.33 C17.53 -0.33 19.16 -0.32 20.79 -0.32 C24.23 -0.32 27.66 -0.3 31.1 -0.28 C35.44 -0.25 39.78 -0.24 44.13 -0.24 C114.18 -0.15 114.18 -0.15 136 19 C141.79 25.22 146.63 32.19 150 40 C150.48 41.05 150.97 42.11 151.46 43.2 C153.18 47.2 154.19 51.25 155.12 55.5 C155.29 56.2 155.46 56.9 155.64 57.62 C158.89 72.18 158.15 87.55 158.13 102.38 C158.13 104.51 158.13 106.65 158.14 108.79 C158.14 113.26 158.14 117.72 158.13 122.18 C158.12 127.86 158.13 133.53 158.13 139.21 C158.14 143.62 158.14 148.04 158.13 152.45 C158.13 154.54 158.13 156.63 158.14 158.72 C158.16 189.96 158.16 189.96 155.25 202.19 C155.07 202.94 154.9 203.7 154.72 204.48 C150.63 221.2 142.27 235.82 127.71 245.52 C113.06 254.05 97.5 257.06 80.75 257.28 C78.6 257.32 76.44 257.36 74.28 257.39 C70.9 257.45 67.52 257.5 64.14 257.55 C60.87 257.6 57.59 257.66 54.32 257.72 C53.81 257.73 53.81 257.73 51.23 257.76 C50.29 257.78 49.36 257.79 48.39 257.81 C47.98 257.82 47.98 257.82 45.89 257.85 C44 258 44 258 43 259 C42.89 261.98 42.85 264.93 42.86 267.91 C42.85 268.86 42.85 269.81 42.84 270.78 C42.83 273.98 42.83 277.18 42.83 280.38 C42.82 282.66 42.81 284.94 42.81 287.23 C42.79 292.15 42.78 297.08 42.77 302.01 C42.75 309.79 42.73 317.58 42.71 325.36 C42.67 336.27 42.64 347.18 42.61 358.09 C42.61 358.78 42.6 359.47 42.6 360.19 C42.57 370.02 42.55 379.85 42.53 389.68 C42.53 390.38 42.52 391.07 42.52 391.78 C42.52 392.47 42.52 393.17 42.52 393.88 C42.49 405.4 42.46 416.92 42.42 428.44 C42.39 436.18 42.37 443.93 42.36 451.67 C42.35 456.49 42.33 461.3 42.31 466.11 C42.31 468.35 42.3 470.58 42.3 472.82 C42.3 475.87 42.29 478.91 42.27 481.96 C42.27 482.41 42.27 482.41 42.28 484.67 C42.23 490.77 42.23 490.77 40 493 C37.01 493.2 34.12 493.28 31.12 493.27 C30.24 493.27 29.36 493.27 28.46 493.27 C26.59 493.27 24.73 493.27 22.87 493.26 C20.01 493.25 17.15 493.26 14.3 493.27 C12.49 493.27 10.68 493.27 8.88 493.27 C8.02 493.27 7.16 493.27 6.27 493.28 C0.23 493.23 0.23 493.23 -2 491 C-2.2 488.35 -2.27 485.8 -2.25 483.14 C-2.25 482.32 -2.26 481.49 -2.26 480.64 C-2.27 477.84 -2.26 475.05 -2.25 472.25 C-2.26 470.24 -2.26 468.23 -2.26 466.22 C-2.27 460.66 -2.27 455.11 -2.26 449.55 C-2.26 443.57 -2.26 437.59 -2.27 431.61 C-2.28 420.57 -2.28 409.52 -2.27 398.47 C-2.27 388.27 -2.27 378.07 -2.27 367.86 C-2.27 367.19 -2.27 366.51 -2.27 365.81 C-2.27 363.07 -2.27 360.33 -2.27 357.58 C-2.28 331.83 -2.27 306.07 -2.26 280.31 C-2.25 257.41 -2.25 234.51 -2.26 211.61 C-2.27 185.9 -2.28 160.2 -2.27 134.49 C-2.27 131.75 -2.27 129.01 -2.27 126.27 C-2.27 125.6 -2.27 124.92 -2.27 124.23 C-2.26 114.03 -2.27 103.83 -2.27 93.63 C-2.28 82.04 -2.28 70.44 -2.27 58.85 C-2.26 52.93 -2.26 47.01 -2.27 41.09 C-2.27 35.68 -2.27 30.26 -2.26 24.85 C-2.26 22.89 -2.26 20.92 -2.26 18.96 C-2.27 16.3 -2.26 13.64 -2.25 10.98 C-2.26 10.21 -2.26 9.44 -2.27 8.64 C-2.24 4.88 -2.14 3.21 0 0 Z M42 46 C41.9 48.16 41.87 50.33 41.87 52.49 C41.87 53.18 41.87 53.86 41.87 54.57 C41.86 56.89 41.87 59.2 41.87 61.52 C41.87 63.17 41.87 64.83 41.87 66.48 C41.86 70.98 41.86 75.49 41.87 79.99 C41.87 84.7 41.87 89.4 41.86 94.1 C41.86 102 41.86 109.9 41.87 117.8 C41.88 126.94 41.87 136.09 41.87 145.24 C41.86 153.07 41.86 160.91 41.87 168.75 C41.87 173.44 41.87 178.12 41.86 182.81 C41.86 187.22 41.86 191.62 41.87 196.03 C41.87 197.65 41.87 199.27 41.87 200.9 C41.86 203.1 41.87 205.3 41.87 207.51 C41.87 208.75 41.87 209.98 41.87 211.26 C42 214 42 214 43 215 C62.35 216.9 85.43 218.84 102 207 C109.36 200.64 113.26 191.97 114.28 182.35 C114.39 179.52 114.42 176.7 114.4 173.87 C114.41 172.8 114.42 171.74 114.42 170.64 C114.44 167.15 114.44 163.66 114.43 160.16 C114.44 157.72 114.44 155.27 114.45 152.83 C114.46 147.71 114.46 142.6 114.45 137.48 C114.43 130.95 114.45 124.42 114.48 117.89 C114.5 112.84 114.5 107.79 114.5 102.74 C114.5 100.33 114.5 97.93 114.51 95.52 C114.64 66.37 114.64 66.37 104.92 54.9 C97.93 47.97 89.14 44.67 79.41 44.63 C78.49 44.65 77.57 44.66 76.63 44.67 C75.67 44.67 74.7 44.68 73.71 44.68 C71.69 44.68 69.67 44.7 67.65 44.72 C64.55 44.75 61.44 44.76 58.34 44.77 C56.37 44.77 54.41 44.79 52.44 44.8 C51.51 44.8 50.58 44.81 49.62 44.81 C49.19 44.81 49.19 44.81 47.03 44.84 C46.27 44.85 45.52 44.85 44.74 44.86 C43 45 43 45 42 46 Z " fill="#FFFFFF" transform="translate(2106,1811)"/><path d="M0 0 C2.1 -0.36 2.1 -0.36 4.73 -0.34 C5.71 -0.34 6.69 -0.34 7.7 -0.34 C8.76 -0.32 9.82 -0.31 10.91 -0.29 C12 -0.29 13.08 -0.28 14.2 -0.28 C17.68 -0.26 21.15 -0.23 24.62 -0.19 C26.98 -0.17 29.33 -0.16 31.68 -0.15 C37.45 -0.11 43.23 -0.06 49 0 C50.5 2.88 51.35 5.2 51.78 8.42 C51.84 8.85 51.84 8.85 52.14 11 C52.26 11.91 52.38 12.82 52.5 13.75 C52.63 14.7 52.76 15.65 52.89 16.63 C53.78 23.16 54.61 29.7 55.41 36.24 C56.2 42.68 57.04 49.12 57.88 55.56 C58.05 56.91 58.22 58.26 58.4 59.61 C58.75 62.37 59.11 65.13 59.47 67.88 C60.31 74.42 61.16 80.96 62 87.5 C62.33 90.08 62.67 92.67 63 95.25 C69 141.75 69 141.75 69.5 145.63 C69.83 148.21 70.17 150.79 70.5 153.37 C71.34 159.84 72.17 166.31 73 172.79 C75.45 191.84 77.97 210.88 80.53 229.93 C81.38 236.28 82.22 242.64 83 249 C83.64 254.17 84.31 259.34 85 264.5 C85.78 270.34 86.53 276.18 87.25 282.02 C87.81 286.52 88.4 291.01 89 295.5 C89.78 301.34 90.53 307.18 91.25 313.02 C91.81 317.52 92.4 322.01 93 326.5 C93.78 332.34 94.53 338.18 95.25 344.02 C95.81 348.52 96.4 353.01 97 357.5 C97.65 362.33 98.28 367.16 98.88 372 C101.15 390.35 103.55 408.68 106 427 C107.9 441.19 109.77 455.39 111.57 469.6 C111.84 471.76 112.12 473.91 112.4 476.07 C112.74 478.65 113.06 481.23 113.38 483.81 C113.47 484.54 113.57 485.26 113.67 486 C113.9 487.96 113.9 487.96 114 491 C111.34 493.66 109.35 493.25 105.73 493.28 C105.3 493.28 105.3 493.28 103.12 493.27 C102.24 493.27 101.36 493.27 100.46 493.27 C98.59 493.27 96.73 493.27 94.87 493.26 C92.01 493.25 89.15 493.26 86.3 493.27 C84.49 493.27 82.68 493.27 80.88 493.27 C80.02 493.27 79.16 493.27 78.27 493.28 C72.23 493.23 72.23 493.23 70 491 C69.44 488.27 69.44 488.27 69 484.8 C68.92 484.17 68.92 484.17 68.5 480.97 C68.34 479.6 68.17 478.24 68 476.88 C67.82 475.49 67.65 474.11 67.47 472.72 C66.97 468.82 66.48 464.91 66 461 C65.79 459.33 65.58 457.65 65.37 455.98 C65.05 453.47 64.74 450.95 64.43 448.44 C63.82 443.56 63.16 438.69 62.5 433.82 C62.14 431.1 61.8 428.37 61.46 425.64 C61.38 424.92 61.29 424.2 61.2 423.45 C60.95 421.42 60.71 419.39 60.46 417.36 C60 414 60 414 59 410 C35.24 410 11.48 410 -13 410 C-15.41 415.62 -16.46 418.71 -17.06 424.5 C-17.2 425.75 -17.33 427 -17.47 428.28 C-17.55 428.99 -17.63 429.7 -17.7 430.43 C-18.3 435.64 -19.03 440.82 -19.73 446.01 C-20.16 449.2 -20.58 452.38 -21 455.57 C-21.33 458.09 -21.67 460.61 -22 463.12 C-22.08 463.75 -22.08 463.75 -22.5 466.93 C-22.99 470.62 -23.49 474.31 -24 478 C-24.16 479.24 -24.33 480.48 -24.5 481.75 C-24.66 482.93 -24.83 484.1 -25 485.3 C-25.14 486.35 -25.29 487.4 -25.44 488.48 C-26 491 -26 491 -28 493 C-31 493.19 -33.91 493.26 -36.91 493.23 C-37.79 493.23 -38.68 493.23 -39.58 493.23 C-41.45 493.23 -43.32 493.22 -45.19 493.21 C-48.05 493.19 -50.92 493.19 -53.79 493.19 C-55.6 493.18 -57.41 493.17 -59.22 493.17 C-60.09 493.17 -60.95 493.17 -61.84 493.16 C-67.88 493.12 -67.88 493.12 -69 492 C-68.95 490.57 -68.81 489.14 -68.65 487.72 C-68.55 486.82 -68.45 485.91 -68.35 484.98 C-68.23 483.99 -68.12 483.01 -68 482 C-67.89 481 -67.78 480.01 -67.66 478.98 C-67.31 475.8 -66.94 472.62 -66.56 469.44 C-66.44 468.37 -66.32 467.29 -66.19 466.19 C-65.55 460.76 -64.72 455.51 -63.45 450.19 C-62.62 446.17 -62.34 442.09 -62 438 C-61.53 432.31 -60.81 426.9 -59.5 421.35 C-58.55 416.86 -58.13 412.3 -57.62 407.75 C-56.1 394.49 -54.28 381.28 -52.43 368.07 C-51.91 364.34 -51.42 360.61 -50.94 356.88 C-50.24 351.59 -49.42 346.33 -48.56 341.06 C-47.25 332.93 -46.19 324.78 -45.19 316.6 C-43.77 304.95 -42.14 293.33 -40.52 281.71 C-39.67 275.64 -38.84 269.57 -38 263.5 C-37.67 261.08 -37.33 258.67 -37 256.25 C-36.92 255.65 -36.92 255.65 -36.5 252.62 C-27 183.75 -27 183.75 -26.5 180.12 C-26.17 177.71 -25.83 175.3 -25.5 172.88 C-24.66 166.79 -23.82 160.7 -22.96 154.61 C-21.18 141.82 -19.46 129.04 -18.04 116.2 C-17.55 111.88 -16.98 107.66 -15.98 103.42 C-14.85 98.65 -14.41 93.88 -14 89 C-13.53 83.29 -12.8 77.86 -11.47 72.28 C-10.63 68.22 -10.34 64.12 -10 60 C-9.53 54.29 -8.8 48.86 -7.47 43.28 C-6.63 39.22 -6.34 35.12 -6 31 C-5.52 25.19 -4.79 19.64 -3.44 13.96 C-2.77 10.97 -2.56 7.99 -2.34 4.95 C-2 3 -2 3 0 0 Z M23 121 C21.13 125.15 20.27 129.28 19.56 133.75 C19.44 134.53 19.31 135.31 19.18 136.11 C17.08 149.42 15.67 162.82 14.21 176.21 C14.08 177.41 13.95 178.61 13.82 179.84 C13.57 182.13 13.33 184.41 13.09 186.7 C12.55 191.72 11.92 196.67 10.97 201.63 C9.8 207.79 9.29 213.95 8.79 220.19 C8.41 224.53 7.9 228.73 7 233 C5.91 238.14 5.42 243.26 5 248.5 C4.51 254.6 3.76 260.46 2.5 266.45 C1.61 271.02 1.14 275.63 0.62 280.25 C-0.92 293.54 -2.68 306.8 -4.47 320.06 C-5.02 324.17 -5.57 328.28 -6.11 332.4 C-6.38 334.46 -6.65 336.51 -6.92 338.57 C-7.18 340.52 -7.44 342.47 -7.69 344.42 C-7.85 345.6 -8.01 346.78 -8.17 348 C-8.3 349.04 -8.44 350.08 -8.58 351.15 C-8.97 353.79 -9.48 356.39 -10 359 C-10.09 360.58 -10.13 362.17 -10.12 363.75 C-10.13 364.53 -10.13 365.31 -10.13 366.11 C-10 368 -10 368 -9 369 C-7.15 369.13 -5.29 369.19 -3.43 369.22 C-2.23 369.24 -1.04 369.27 0.18 369.29 C1.48 369.31 2.78 369.33 4.12 369.35 C5.45 369.37 6.79 369.4 8.13 369.42 C10.93 369.47 13.74 369.52 16.55 369.56 C20.14 369.61 23.74 369.68 27.34 369.74 C30.1 369.79 32.86 369.84 35.62 369.88 C37.59 369.91 39.57 369.95 41.54 369.99 C42.74 370 43.93 370.02 45.17 370.04 C46.22 370.05 47.28 370.07 48.37 370.09 C51 370 51 370 54 369 C54.5 357.91 53.06 347.5 51.38 336.57 C50.82 332.77 50.37 328.95 49.94 325.12 C49.34 319.91 48.71 314.7 48 309.5 C47.18 303.45 46.45 297.4 45.75 291.34 C45.21 286.72 44.62 282.11 44 277.5 C43.18 271.45 42.45 265.4 41.75 259.34 C41.21 254.72 40.62 250.11 40 245.5 C38.59 235.03 37.36 224.55 36.28 214.05 C36.21 213.43 36.21 213.43 35.89 210.31 C35.63 207.87 35.39 205.42 35.14 202.97 C34.61 197.88 34.04 192.87 32.97 187.86 C31.82 182.48 31.4 177.11 31 171.62 C30.57 165.74 30.04 159.95 29.01 154.13 C27.85 147.53 27.34 140.93 26.88 134.25 C26.79 133.06 26.7 131.88 26.61 130.66 C26.4 127.77 26.2 124.89 26 122 C25.01 121.67 24.02 121.34 23 121 Z " fill="#FFFFFF" transform="translate(2338,1811)"/><path d="M0 0 C1.05 -0.01 2.1 -0.01 3.19 -0.02 C4.35 -0.01 5.5 -0.01 6.7 -0 C7.91 -0.01 9.13 -0.01 10.38 -0.02 C13.72 -0.02 17.06 -0.02 20.41 -0.01 C23.9 -0.01 27.39 -0.01 30.88 -0.02 C36.75 -0.02 42.61 -0.02 48.47 -0.01 C55.26 0 62.05 0 68.83 -0.01 C74.65 -0.02 80.47 -0.02 86.29 -0.02 C89.77 -0.01 93.25 -0.01 96.73 -0.02 C100.6 -0.03 104.48 -0.02 108.36 -0 C109.52 -0.01 110.67 -0.01 111.87 -0.02 C112.92 -0.01 113.97 -0.01 115.05 0 C115.97 0 116.89 0 117.83 0 C120.03 0.25 120.03 0.25 122.03 2.25 C122.23 5.32 122.31 8.29 122.29 11.35 C122.3 12.25 122.3 13.15 122.3 14.08 C122.3 15.99 122.3 17.9 122.29 19.81 C122.28 22.74 122.29 25.67 122.3 28.6 C122.3 30.45 122.3 32.31 122.29 34.16 C122.3 35.04 122.3 35.92 122.31 36.83 C122.26 43.02 122.26 43.02 120.03 45.25 C117.48 45.44 115.04 45.5 112.49 45.47 C111.71 45.46 110.93 45.46 110.13 45.46 C107.56 45.45 104.98 45.43 102.4 45.41 C100.62 45.41 98.83 45.4 97.04 45.4 C92.34 45.39 87.63 45.36 82.92 45.33 C75.39 45.29 67.85 45.26 60.31 45.24 C57.68 45.23 55.04 45.21 52.4 45.19 C50.79 45.19 49.18 45.18 47.57 45.17 C46.83 45.17 46.09 45.16 45.33 45.15 C40.25 45.14 40.25 45.14 38.03 46.25 C38 68.66 37.99 91.07 37.98 113.48 C37.97 123.88 37.96 134.29 37.95 144.69 C37.94 153.76 37.94 162.82 37.93 171.89 C37.93 176.69 37.93 181.49 37.92 186.29 C37.91 190.81 37.91 195.32 37.91 199.84 C37.91 201.5 37.91 203.16 37.91 204.83 C37.9 207.09 37.9 209.34 37.91 211.6 C37.91 212.87 37.91 214.14 37.9 215.44 C38.03 218.25 38.03 218.25 39.03 219.25 C40.8 219.37 42.58 219.42 44.36 219.44 C44.93 219.45 44.93 219.45 47.81 219.49 C49.04 219.51 50.28 219.52 51.56 219.54 C52.82 219.55 54.08 219.57 55.38 219.59 C59.43 219.65 63.48 219.7 67.53 219.75 C72.85 219.82 78.17 219.9 83.5 219.97 C84.73 219.99 85.97 220 87.25 220.01 C87.82 220.02 87.82 220.02 90.7 220.06 C91.7 220.08 92.71 220.09 93.75 220.1 C96.03 220.25 96.03 220.25 97.03 221.25 C97.13 224.34 97.17 227.41 97.16 230.5 C97.16 231.43 97.16 232.36 97.16 233.32 C97.16 235.28 97.16 237.25 97.16 239.22 C97.15 242.24 97.16 245.26 97.16 248.29 C97.16 250.19 97.16 252.1 97.16 254 C97.16 254.91 97.16 255.82 97.17 256.76 C97.14 263.14 97.14 263.14 96.03 264.25 C76.89 264.25 57.75 264.25 38.03 264.25 C38.03 325.3 38.03 386.35 38.03 449.25 C66.41 449.25 94.79 449.25 124.03 449.25 C125.03 450.25 125.03 450.25 125.14 454.22 C125.14 456 125.14 457.77 125.13 459.54 C125.12 460 125.12 460 125.12 462.36 C125.12 465.35 125.1 468.33 125.09 471.32 C125.08 473.34 125.08 475.35 125.08 477.37 C125.07 482.33 125.05 487.29 125.03 492.25 C122.51 493.51 120.8 493.38 117.99 493.38 C116.92 493.38 115.85 493.39 114.75 493.39 C113.58 493.39 112.4 493.39 111.19 493.38 C109.96 493.39 108.72 493.39 107.45 493.39 C104.06 493.39 100.67 493.39 97.28 493.39 C93.73 493.39 90.19 493.39 86.64 493.39 C80.69 493.39 74.74 493.39 68.78 493.38 C61.89 493.38 55.01 493.38 48.12 493.39 C42.21 493.39 36.3 493.39 30.4 493.39 C26.86 493.39 23.33 493.39 19.8 493.39 C15.87 493.39 11.93 493.39 7.99 493.38 C6.82 493.39 5.65 493.39 4.44 493.39 C3.37 493.39 2.3 493.38 1.2 493.38 C0.27 493.38 -0.67 493.38 -1.63 493.38 C-3.97 493.25 -3.97 493.25 -6.97 492.25 C-7.01 445.57 -7.04 398.88 -7.06 352.19 C-7.06 351.5 -7.06 350.81 -7.06 350.1 C-7.06 335.1 -7.07 320.09 -7.07 305.09 C-7.08 297.73 -7.08 290.37 -7.08 283.01 C-7.08 282.28 -7.08 281.55 -7.08 280.79 C-7.09 257.04 -7.11 233.29 -7.13 209.54 C-7.14 185.14 -7.16 160.74 -7.16 136.34 C-7.16 132.9 -7.16 129.46 -7.16 126.01 C-7.16 125.34 -7.16 124.66 -7.16 123.96 C-7.17 113.03 -7.17 102.11 -7.19 91.18 C-7.2 80.2 -7.2 69.23 -7.2 58.26 C-7.2 52.31 -7.2 46.36 -7.21 40.41 C-7.22 34.97 -7.22 29.53 -7.21 24.09 C-7.21 22.11 -7.22 20.14 -7.22 18.16 C-7.23 15.49 -7.23 12.82 -7.22 10.15 C-7.22 9.37 -7.23 8.59 -7.23 7.79 C-7.2 1.6 -6.19 0.01 0 0 Z " fill="#FFFFFF" transform="translate(2697.9725341796875,1810.7460327148438)"/><path d="M0 0 C0.48 -0 0.48 -0 2.89 -0.02 C3.93 -0.02 4.96 -0.01 6.02 -0.01 C7.08 -0.01 8.14 -0.01 9.23 -0.01 C11.47 -0.01 13.71 -0.01 15.95 -0 C19.38 0.01 22.82 -0 26.26 -0.01 C28.43 -0.01 30.6 -0.01 32.77 -0.01 C33.81 -0.01 34.84 -0.01 35.9 -0.02 C36.86 -0.01 37.81 -0.01 38.8 0 C39.64 0 40.48 0 41.35 0 C43.4 0.26 43.4 0.26 45.4 2.26 C46 4.71 46.49 7.09 46.9 9.57 C47.03 10.31 47.15 11.06 47.29 11.82 C48.43 18.77 49.11 25.75 49.66 32.77 C50.01 37 50.51 41.08 51.39 45.23 C52.67 51.25 53.12 57.28 53.61 63.4 C53.98 67.76 54.49 71.98 55.4 76.26 C56.67 82.27 57.12 88.29 57.61 94.4 C57.98 98.76 58.49 102.98 59.4 107.26 C60.67 113.27 61.12 119.29 61.61 125.4 C61.98 129.76 62.49 133.98 63.4 138.26 C64.67 144.27 65.12 150.29 65.61 156.4 C66.06 161.6 66.82 166.58 67.9 171.68 C68.81 176.4 69.26 181.17 69.77 185.95 C72.72 212.41 76.39 238.79 79.92 265.18 C80.77 271.54 81.62 277.89 82.4 284.26 C83.04 289.43 83.7 294.6 84.4 299.76 C85.18 305.59 85.93 311.43 86.65 317.28 C87.21 321.78 87.79 326.27 88.4 330.76 C89.18 336.59 89.93 342.43 90.65 348.28 C91.21 352.78 91.79 357.27 92.4 361.76 C93.18 367.59 93.93 373.43 94.65 379.28 C95.21 383.78 95.79 388.27 96.4 392.76 C97.13 398.23 97.83 403.71 98.51 409.19 C99.58 417.74 100.69 426.28 101.79 434.83 C101.97 436.19 102.14 437.55 102.32 438.91 C102.41 439.59 102.5 440.28 102.59 440.98 C103.13 445.19 103.67 449.39 104.21 453.6 C104.56 456.36 104.92 459.13 105.27 461.89 C105.52 463.82 105.76 465.74 106 467.67 C106.08 468.27 106.08 468.27 106.47 471.3 C106.62 472.45 106.76 473.6 106.92 474.79 C107.56 479.45 108.38 484.09 109.22 488.73 C109.28 489.56 109.34 490.4 109.4 491.26 C106.73 493.92 104.75 493.5 101.12 493.51 C100.27 493.5 99.41 493.5 98.52 493.49 C97.64 493.49 96.76 493.49 95.86 493.49 C93.99 493.48 92.13 493.48 90.27 493.46 C87.41 493.45 84.55 493.44 81.7 493.44 C79.89 493.44 78.08 493.43 76.27 493.43 C75.42 493.43 74.56 493.42 73.67 493.42 C67.63 493.37 67.63 493.37 65.4 492.26 C64.84 489.92 64.84 489.92 64.4 486.82 C64.23 485.69 64.07 484.55 63.9 483.39 C63.82 482.78 63.82 482.78 63.4 479.7 C63.31 479.07 63.31 479.07 62.86 475.92 C61.45 465.87 60.17 455.79 58.98 445.71 C58.57 442.26 58.15 438.82 57.72 435.37 C57.55 433.98 57.38 432.59 57.22 431.19 C56.99 429.21 56.74 427.24 56.5 425.26 C56.36 424.1 56.22 422.95 56.07 421.76 C55.4 418.26 55.4 418.26 52.4 410.26 C28.64 410.26 4.88 410.26 -19.6 410.26 C-21.85 419.25 -21.85 419.25 -22.16 423.28 C-22.24 424.16 -22.31 425.04 -22.39 425.94 C-22.46 426.83 -22.53 427.72 -22.6 428.63 C-23.08 434.76 -23.82 440.65 -25.1 446.66 C-26.04 451.51 -26.54 456.41 -27.1 461.32 C-27.23 462.41 -27.36 463.49 -27.49 464.61 C-28.08 469.61 -28.64 474.6 -29.17 479.59 C-29.25 480.38 -29.34 481.17 -29.43 481.98 C-29.58 483.42 -29.73 484.86 -29.87 486.31 C-30.38 491.04 -30.38 491.04 -32.6 493.26 C-35.61 493.43 -38.53 493.49 -41.55 493.45 C-42.43 493.45 -43.32 493.45 -44.23 493.45 C-47.06 493.43 -49.89 493.41 -52.73 493.38 C-54.64 493.37 -56.56 493.36 -58.48 493.36 C-63.19 493.33 -67.89 493.3 -72.6 493.26 C-74.96 489.11 -74.4 486.93 -73.35 482.26 C-71.81 474.98 -70.94 467.76 -70.34 460.35 C-70 456.41 -69.52 452.64 -68.61 448.78 C-67.47 443.99 -67.01 439.22 -66.6 434.32 C-66.1 428.37 -65.33 422.64 -64.1 416.8 C-63.23 412.38 -62.75 407.92 -62.23 403.45 C-60.79 391.54 -59.16 379.67 -57.51 367.79 C-56.83 362.91 -56.17 358.02 -55.54 353.13 C-54.84 347.85 -54.02 342.59 -53.16 337.32 C-51.85 329.19 -50.79 321.03 -49.79 312.86 C-48.37 301.21 -46.74 289.59 -45.12 277.96 C-44.27 271.9 -43.44 265.83 -42.6 259.76 C-42.27 257.34 -41.93 254.93 -41.6 252.51 C-41.52 251.91 -41.52 251.91 -41.1 248.88 C-35.6 209.01 -35.6 209.01 -35.1 205.38 C-34.77 202.97 -34.44 200.56 -34.1 198.14 C-33.26 192.05 -32.42 185.96 -31.57 179.87 C-29.78 167.08 -28.06 154.3 -26.64 141.46 C-26.15 137.14 -25.58 132.92 -24.58 128.68 C-23.45 123.9 -23.01 119.14 -22.6 114.26 C-22.13 108.54 -21.4 103.12 -20.07 97.54 C-19.23 93.48 -18.94 89.38 -18.6 85.26 C-18.13 79.54 -17.4 74.12 -16.07 68.54 C-15.23 64.48 -14.94 60.38 -14.6 56.26 C-14.13 50.54 -13.4 45.1 -12.07 39.51 C-11.25 35.59 -10.99 31.62 -10.66 27.63 C-8.14 0.02 -8.14 0.02 0 0 Z M15.4 124.26 C13.3 130.46 12.84 136.5 12.4 143.01 C11.92 149.97 11.2 156.7 9.87 163.55 C8.92 169.02 8.61 174.56 8.19 180.1 C7.75 185.43 6.99 190.53 5.87 195.76 C5.06 200.06 4.75 204.4 4.4 208.76 C3.91 214.87 3.14 220.74 1.87 226.75 C1.06 231.05 0.75 235.39 0.4 239.76 C-0.09 245.86 -0.84 251.72 -2.11 257.71 C-2.99 262.27 -3.46 266.89 -3.98 271.51 C-5.08 281 -6.27 290.48 -7.54 299.95 C-7.71 301.19 -7.87 302.44 -8.05 303.72 C-8.56 307.57 -9.08 311.41 -9.6 315.26 C-16.05 363.1 -16.05 363.1 -15.6 368.26 C-12.09 370.6 -10.8 370.48 -6.66 370.39 C-5.44 370.37 -4.22 370.35 -2.96 370.33 C-2.3 370.32 -2.3 370.32 1.04 370.24 C2.4 370.21 3.76 370.18 5.13 370.16 C8.71 370.09 12.3 370.01 15.88 369.93 C19.54 369.85 23.2 369.78 26.86 369.71 C34.04 369.57 41.22 369.42 48.4 369.26 C49.13 365.85 49.46 363.23 48.91 359.77 C48.78 358.93 48.65 358.09 48.52 357.22 C48.38 356.32 48.23 355.43 48.09 354.51 C47.8 352.62 47.51 350.72 47.23 348.83 C47.08 347.89 46.94 346.95 46.79 345.98 C46.23 342.12 45.77 338.26 45.34 334.38 C44.74 329.17 44.1 323.96 43.4 318.76 C42.58 312.71 41.85 306.66 41.15 300.59 C40.61 295.98 40.02 291.37 39.4 286.76 C38.58 280.71 37.85 274.66 37.15 268.59 C36.61 263.98 36.02 259.37 35.4 254.76 C34.64 249.13 33.94 243.5 33.29 237.86 C32.43 230.51 31.55 223.17 30.66 215.82 C30.49 214.39 30.32 212.96 30.14 211.52 C29.1 202.87 28 194.22 26.84 185.58 C26.3 181.5 25.83 177.41 25.4 173.32 C24.78 167.56 24.09 161.82 23.34 156.07 C22.65 150.81 22.22 145.62 21.96 140.32 C21.62 134.44 20.6 129.71 18.4 124.26 C17.41 124.26 16.42 124.26 15.4 124.26 Z " fill="#FFFFFF" transform="translate(3030.6015625,1810.7412109375)"/><path d="M0 0 C1.27 0 2.54 0 3.85 0 C4.2 0 4.2 0 5.98 -0 C8.31 -0.01 10.64 0.01 12.97 0.02 C14.61 0.02 16.24 0.02 17.87 0.02 C21.31 0.02 24.75 0.03 28.19 0.04 C32.54 0.06 36.89 0.06 41.25 0.06 C44.63 0.06 48.02 0.07 51.4 0.07 C53 0.08 54.6 0.08 56.2 0.08 C64.93 0.09 73.63 0.26 82.34 0.71 C83.13 0.75 83.92 0.79 84.74 0.83 C90.31 1.14 95.64 1.76 101.04 3.25 C102.1 3.54 103.15 3.83 104.24 4.13 C120.11 8.74 134.47 17.43 142.99 32.15 C144.96 36.08 146.52 40.13 148.04 44.25 C148.29 44.85 148.29 44.85 149.56 47.92 C151.33 52.67 152.02 57.43 152.67 62.43 C152.79 63.29 152.91 64.15 153.03 65.03 C154.87 78.54 155.21 91.96 155.24 105.56 C155.24 106.02 155.24 106.02 155.25 108.33 C155.27 113.17 155.28 118.02 155.28 122.86 C155.28 126.8 155.3 130.74 155.32 134.68 C155.73 207.22 155.73 207.22 142.04 227.25 C141.6 227.91 141.16 228.56 140.71 229.24 C139.23 231.33 137.68 233.29 136.04 235.25 C135.43 235.98 134.82 236.71 134.18 237.47 C122.26 250.53 105.25 255.8 88.04 257.25 C84.33 257.42 80.63 257.48 76.92 257.53 C74.81 257.57 72.7 257.6 70.59 257.64 C67.29 257.7 64 257.75 60.7 257.8 C57.5 257.85 54.3 257.91 51.1 257.97 C50.11 257.98 49.11 257.99 48.09 258.01 C47.18 258.02 46.26 258.04 45.33 258.06 C44.52 258.07 43.71 258.08 42.88 258.1 C41.04 258.25 41.04 258.25 40.04 259.25 C39.94 262.23 39.9 265.18 39.9 268.16 C39.9 268.64 39.9 268.64 39.89 271.03 C39.89 274.23 39.88 277.43 39.88 280.63 C39.88 282.91 39.87 285.19 39.87 287.47 C39.86 292.4 39.85 297.33 39.84 302.26 C39.83 310.04 39.81 317.83 39.79 325.61 C39.78 328.27 39.77 330.93 39.77 333.59 C39.76 334.26 39.76 334.92 39.76 335.61 C39.74 343.18 39.72 350.76 39.7 358.33 C39.7 359.03 39.7 359.72 39.7 360.43 C39.67 371.66 39.65 382.89 39.64 394.13 C39.62 405.65 39.59 417.16 39.55 428.68 C39.53 435.16 39.51 441.63 39.51 448.1 C39.51 454.19 39.49 460.27 39.47 466.35 C39.46 468.59 39.46 470.83 39.46 473.07 C39.47 476.12 39.45 479.16 39.43 482.21 C39.43 482.65 39.43 482.65 39.45 484.92 C39.42 487.38 39.42 487.38 39.04 491.25 C35.19 493.82 32.01 493.54 27.54 493.51 C27.12 493.51 27.12 493.51 25.02 493.52 C23.26 493.52 21.5 493.52 19.74 493.51 C17.05 493.5 14.36 493.51 11.67 493.52 C9.96 493.52 8.25 493.52 6.54 493.51 C5.73 493.52 4.93 493.52 4.1 493.53 C0.23 493.49 -1.66 493.44 -4.96 491.25 C-5.26 488.55 -5.36 486.07 -5.33 483.37 C-5.34 482.54 -5.34 481.72 -5.35 480.86 C-5.36 478.06 -5.35 475.26 -5.33 472.46 C-5.34 470.44 -5.34 468.42 -5.35 466.4 C-5.36 460.84 -5.35 455.27 -5.34 449.7 C-5.33 443.71 -5.34 437.71 -5.34 431.72 C-5.35 420.65 -5.35 409.57 -5.34 398.5 C-5.33 388.27 -5.32 378.05 -5.32 367.82 C-5.32 367.14 -5.32 366.46 -5.32 365.77 C-5.32 363.02 -5.32 360.27 -5.32 357.52 C-5.33 331.7 -5.32 305.89 -5.29 280.07 C-5.28 257.12 -5.27 234.16 -5.28 211.21 C-5.28 209.74 -5.28 208.26 -5.28 206.79 C-5.28 206.06 -5.28 205.33 -5.28 204.58 C-5.28 200.92 -5.28 197.25 -5.28 193.58 C-5.28 192.86 -5.28 192.13 -5.28 191.39 C-5.28 172.23 -5.28 153.07 -5.27 133.91 C-5.27 131.85 -5.27 129.79 -5.27 127.73 C-5.27 126.36 -5.27 124.99 -5.27 123.63 C-5.26 114.08 -5.26 104.54 -5.26 94.99 C-5.27 82.69 -5.26 70.4 -5.25 58.1 C-5.24 52.16 -5.23 46.23 -5.24 40.3 C-5.24 34.87 -5.24 29.45 -5.23 24.02 C-5.22 22.05 -5.22 20.08 -5.23 18.11 C-5.23 15.45 -5.22 12.79 -5.21 10.12 C-5.22 9.35 -5.22 8.57 -5.23 7.76 C-5.17 0.43 -5.17 0.43 0 0 Z M39.04 46.25 C38.86 67.54 38.7 88.84 38.55 110.14 C38.47 120.03 38.4 129.91 38.32 139.8 C38.24 148.42 38.18 157.04 38.12 165.66 C38.09 170.22 38.06 174.78 38.01 179.35 C37.97 183.64 37.94 187.94 37.92 192.23 C37.91 193.81 37.9 195.39 37.88 196.96 C37.86 199.11 37.85 201.27 37.84 203.42 C37.83 204.62 37.82 205.83 37.81 207.07 C38.04 210.25 38.55 212.44 40.04 215.25 C45.78 217.41 52.78 216.2 58.86 216.01 C61.07 215.94 63.28 215.88 65.5 215.83 C88.83 215.18 88.83 215.18 96.04 209.43 C96.91 208.77 97.77 208.1 98.67 207.42 C102.51 203.9 105.26 200.41 107.17 195.56 C107.32 195.18 107.32 195.18 108.11 193.24 C110.49 185.58 111.34 178.16 111.31 170.17 C111.32 169.69 111.32 169.69 111.33 167.28 C111.34 164.16 111.34 161.04 111.34 157.92 C111.34 155.73 111.35 153.54 111.35 151.35 C111.36 146.76 111.36 142.18 111.36 137.59 C111.35 131.75 111.37 125.91 111.39 120.08 C111.4 115.55 111.41 111.02 111.4 106.5 C111.4 104.35 111.41 102.2 111.42 100.05 C111.55 67.25 111.55 67.25 100.04 53.93 C91.98 47.14 83.92 44.83 73.55 44.67 C73.12 44.65 73.12 44.65 70.93 44.6 C69.12 44.55 67.3 44.51 65.49 44.48 C62.72 44.43 59.94 44.36 57.17 44.28 C55.4 44.24 53.63 44.2 51.86 44.17 C51.45 44.15 51.45 44.15 49.36 44.1 C45.31 44.04 42.56 44.26 39.04 46.25 Z " fill="#FFFFFF" transform="translate(3191.959945678711,1810.7527618408203)"/><path d="M0 0 C0.7 -0 1.4 -0 2.12 -0.01 C4.45 -0.01 6.79 -0.01 9.12 -0 C10.75 -0 12.38 -0.01 14.02 -0.01 C17.46 -0.01 20.9 -0.01 24.34 -0 C28.69 0 33.04 0 37.39 -0 C86.32 -0.06 86.32 -0.06 98.32 3.13 C98.77 3.23 98.77 3.23 101.04 3.75 C107.46 5.31 112.77 7.54 118.32 11.13 C118.76 11.41 118.76 11.41 120.97 12.81 C137.28 23.84 144.9 39.3 148.74 58.22 C151.36 72.36 151.78 86.26 151.75 100.61 C151.76 102.92 151.76 105.23 151.77 107.54 C151.78 112.35 151.78 117.17 151.77 121.98 C151.75 128.07 151.77 134.17 151.8 140.26 C151.82 145.02 151.82 149.79 151.82 154.55 C151.82 156.8 151.82 159.04 151.83 161.28 C151.97 189.22 149.73 217.54 129.73 238.81 C114.78 253.22 94.09 257.11 74.04 257.45 C73.51 257.46 73.51 257.46 70.84 257.51 C67.5 257.57 64.16 257.63 60.82 257.69 C58.54 257.74 56.27 257.78 53.99 257.82 C48.43 257.93 42.88 258.03 37.32 258.13 C35.62 261.54 36.16 265.43 36.16 269.18 C36.16 270.13 36.15 271.08 36.15 272.05 C36.13 275.25 36.12 278.45 36.11 281.65 C36.1 283.94 36.09 286.23 36.08 288.51 C36.06 294.73 36.04 300.96 36.02 307.18 C35.99 313.68 35.97 320.17 35.94 326.67 C35.9 337.58 35.85 348.49 35.82 359.4 C35.78 370.64 35.74 381.88 35.69 393.12 C35.69 393.81 35.69 394.5 35.68 395.22 C35.67 398.69 35.66 402.16 35.64 405.64 C35.53 434.47 35.42 463.3 35.32 492.13 C32.01 493.78 28.33 493.31 24.7 493.33 C23.84 493.34 22.99 493.34 22.1 493.35 C20.29 493.36 18.48 493.37 16.67 493.37 C13.9 493.38 11.12 493.41 8.35 493.44 C6.59 493.45 4.83 493.45 3.07 493.46 C2.24 493.47 1.41 493.48 0.55 493.49 C-5.1 493.47 -5.1 493.47 -7.4 492.11 C-9.42 488.99 -9.08 485.72 -9.04 482.13 C-9.04 481.3 -9.04 480.47 -9.04 479.61 C-9.05 476.81 -9.03 474.01 -9.01 471.21 C-9.01 469.19 -9.01 467.17 -9.01 465.15 C-9.01 459.59 -8.98 454.02 -8.96 448.45 C-8.94 442.46 -8.93 436.46 -8.92 430.47 C-8.91 420.07 -8.88 409.68 -8.84 399.28 C-8.81 388.38 -8.78 377.47 -8.75 366.57 C-8.75 365.89 -8.75 365.21 -8.75 364.51 C-8.74 361.76 -8.74 359.01 -8.73 356.26 C-8.68 331.19 -8.61 306.11 -8.53 281.03 C-8.46 257.34 -8.4 233.65 -8.35 209.96 C-8.35 209.23 -8.35 208.5 -8.34 207.75 C-8.34 204.81 -8.33 201.87 -8.32 198.92 C-8.32 197.46 -8.32 195.99 -8.31 194.52 C-8.31 193.06 -8.31 191.6 -8.3 190.14 C-8.25 166.87 -8.19 143.6 -8.13 120.33 C-8.12 113.51 -8.1 106.69 -8.08 99.88 C-8.05 85.53 -8.01 71.19 -7.97 56.85 C-7.95 50.91 -7.93 44.98 -7.92 39.04 C-7.91 33.62 -7.89 28.2 -7.87 22.78 C-7.86 20.81 -7.86 18.83 -7.85 16.86 C-7.85 14.2 -7.84 11.54 -7.83 8.88 C-7.83 8.1 -7.83 7.32 -7.83 6.51 C-7.78 -0.49 -6.81 0 0 0 Z M35.32 46.13 C34.94 48.98 34.94 48.98 34.94 52.69 C34.93 53.37 34.93 54.05 34.92 54.75 C34.91 57.05 34.92 59.34 34.93 61.64 C34.93 63.28 34.92 64.92 34.91 66.56 C34.9 71.03 34.91 75.49 34.92 79.96 C34.92 84.62 34.92 89.29 34.91 93.95 C34.91 101.79 34.91 109.63 34.93 117.47 C34.94 126.53 34.94 135.6 34.92 144.67 C34.91 152.45 34.91 160.22 34.91 168 C34.92 172.65 34.92 177.3 34.91 181.95 C34.9 186.32 34.91 190.69 34.92 195.06 C34.93 196.66 34.93 198.27 34.92 199.88 C34.91 202.07 34.92 204.25 34.94 206.44 C34.94 207.67 34.94 208.89 34.94 210.16 C35.32 213.13 35.32 213.13 36.69 215.02 C39.07 216.64 40.92 216.52 43.78 216.53 C44.33 216.53 44.33 216.53 47.12 216.55 C48.3 216.53 49.48 216.52 50.69 216.5 C51.9 216.49 53.11 216.48 54.35 216.47 C86.61 215.92 86.61 215.92 95.32 207.13 C95.6 206.85 95.6 206.85 97.03 205.47 C98.62 203.76 99.98 202.03 101.32 200.13 C101.51 199.86 101.51 199.86 102.47 198.5 C109.94 185.92 108.76 168.28 108.68 154.2 C108.68 152.24 108.68 150.27 108.68 148.31 C108.68 144.22 108.67 140.14 108.66 136.05 C108.63 130.85 108.63 125.64 108.64 120.44 C108.64 116.39 108.64 112.35 108.63 108.3 C108.62 106.38 108.62 104.46 108.62 102.55 C108.62 92.54 108.43 82.96 106.32 73.13 C106.16 72.28 106.01 71.42 105.85 70.54 C104.17 61.32 99.86 55.51 92.32 50.13 C82.6 44.27 72.67 44.3 61.63 44.22 C58.73 44.19 55.83 44.13 52.93 44.06 C51.08 44.03 49.23 44 47.38 43.98 C46.51 43.96 45.65 43.94 44.75 43.93 C43.95 43.92 43.15 43.92 42.32 43.91 C41.62 43.91 40.92 43.9 40.19 43.89 C38.32 44.13 38.32 44.13 35.32 46.13 Z " fill="#FFFFFF" transform="translate(3403.680908203125,1810.87060546875)"/><path d="M0 0 C1.06 0.01 2.12 0.02 3.21 0.03 C15.49 0.29 25.94 2.86 35.25 11.44 C35.41 11.93 35.41 11.93 36.25 14.44 C34.52 17.14 34.52 17.14 32.06 20.12 C31.66 20.62 31.66 20.62 29.64 23.14 C27.25 25.44 27.25 25.44 23.25 25.44 C21.67 24.41 21.67 24.41 20 23.06 C13.22 18.59 2.43 17.45 -5.5 19 C-9.3 20.68 -10.83 21.75 -12.75 25.44 C-13.55 29.57 -13.27 32.48 -11.25 36.19 C-6.02 40.89 0.02 42.76 6.68 44.67 C19.42 48.48 31.74 54.53 38.44 66.58 C40.9 75.27 41.05 88.06 37.25 96.31 C31.44 105.5 22.27 110.83 12.08 113.8 C7.23 114.89 2.46 114.93 -2.5 114.88 C-3.55 114.87 -4.61 114.86 -5.69 114.85 C-19.22 114.56 -31.46 111.33 -41.55 101.72 C-41.95 101.3 -42.34 100.87 -42.75 100.44 C-41.26 95.54 -38.52 91.83 -34.75 88.44 C-31.88 87.19 -31.88 87.19 -28.75 87.44 C-25.88 88.84 -23.34 90.57 -20.75 92.44 C-15.59 95.88 -9.81 95.66 -3.75 95.75 C-3.06 95.78 -2.38 95.81 -1.67 95.84 C3.48 95.9 6.29 94.67 10.25 91.44 C12.75 88.42 14.09 86.37 14.75 82.5 C14.09 78.47 12.97 75.46 10.25 72.44 C4.15 68.11 -3.47 66 -10.51 63.67 C-20.61 60.28 -30.54 55.45 -36.24 45.96 C-37.2 43.8 -38.03 41.69 -38.75 39.44 C-38.91 38.94 -38.91 38.94 -39.75 36.44 C-40.71 28.02 -39.2 19.9 -33.95 13.11 C-24.44 3.16 -13.49 -0.14 0 0 Z " fill="#FFFFFF" transform="translate(3168.75,2512.5625)"/><path d="M0 0 C-0.62 3.74 -2.29 6.01 -4.56 9 C-7.54 12.99 -10.39 17.03 -13.12 21.19 C-15.81 25.25 -18.58 29.19 -21.55 33.04 C-23.76 36.03 -25.73 39.17 -27.7 42.31 C-28.13 42.87 -28.56 43.43 -29 44 C-29.66 44 -30.32 44 -31 44 C-31.59 50.35 -30.05 53.29 -26.44 58.19 C-25.51 59.5 -24.59 60.82 -23.67 62.14 C-23.21 62.79 -22.76 63.44 -22.29 64.11 C-20.46 66.79 -18.85 69.56 -17.25 72.38 C-14.9 76.49 -12.41 80.45 -9.75 84.37 C-7.35 87.98 -5.05 91.64 -2.75 95.31 C-2.31 96.01 -1.88 96.7 -1.43 97.42 C-1.01 98.08 -0.6 98.74 -0.17 99.43 C0.2 100.02 0.57 100.61 0.95 101.22 C2.06 103.11 3.04 105.03 4 107 C1.34 109.66 -6.24 108.28 -9.81 108.31 C-10.41 108.33 -10.41 108.33 -13.46 108.4 C-14.61 108.41 -15.77 108.42 -16.96 108.43 C-18.02 108.44 -19.08 108.45 -20.18 108.47 C-23.68 107.89 -24.79 106.72 -27 104 C-28.24 102.03 -28.24 102.03 -29.31 99.94 C-31.21 96.39 -33.25 93 -35.44 89.62 C-38.38 85.07 -40.98 80.4 -43.53 75.62 C-45.36 72.37 -47.44 69.34 -49.56 66.27 C-51.61 63.03 -53.12 59.59 -54.63 56.07 C-56.39 53.42 -58.07 53.06 -61 52 C-61 52.69 -61 53.37 -60.99 54.08 C-60.97 61.2 -60.96 68.32 -60.95 75.44 C-60.94 78.1 -60.93 80.77 -60.92 83.43 C-60.91 87.24 -60.91 91.06 -60.9 94.87 C-60.9 96.07 -60.89 97.27 -60.89 98.5 C-60.89 99.05 -60.89 99.05 -60.89 101.84 C-60.88 102.81 -60.88 103.79 -60.88 104.79 C-61 107 -61 107 -62 108 C-63.7 108.1 -65.4 108.13 -67.09 108.13 C-68.12 108.13 -69.15 108.14 -70.21 108.14 C-70.76 108.13 -70.76 108.13 -73.5 108.12 C-74.58 108.13 -75.67 108.13 -76.79 108.14 C-77.82 108.14 -78.85 108.13 -79.91 108.13 C-80.86 108.13 -81.81 108.13 -82.79 108.13 C-85 108 -85 108 -86 107 C-86.1 105.62 -86.13 104.24 -86.13 102.86 C-86.13 101.97 -86.13 101.08 -86.14 100.16 C-86.13 99.17 -86.13 98.19 -86.13 97.17 C-86.13 96.14 -86.13 95.11 -86.13 94.04 C-86.14 90.61 -86.14 87.18 -86.13 83.75 C-86.13 81.38 -86.13 79 -86.14 76.63 C-86.14 71.65 -86.14 66.67 -86.13 61.69 C-86.12 55.29 -86.13 48.89 -86.13 42.49 C-86.14 37.59 -86.14 32.69 -86.13 27.79 C-86.13 25.43 -86.13 23.07 -86.14 20.71 C-86.14 17.41 -86.13 14.12 -86.13 10.83 C-86.13 9.84 -86.13 8.86 -86.14 7.84 C-86.13 6.95 -86.13 6.06 -86.13 5.14 C-86.13 4.36 -86.13 3.58 -86.13 2.78 C-86 1 -86 1 -85 0 C-83.3 -0.1 -81.6 -0.13 -79.91 -0.13 C-78.88 -0.13 -77.85 -0.14 -76.79 -0.14 C-76.24 -0.13 -76.24 -0.13 -73.5 -0.12 C-72.42 -0.13 -71.33 -0.13 -70.21 -0.14 C-69.18 -0.14 -68.15 -0.13 -67.09 -0.13 C-66.62 -0.13 -66.62 -0.13 -64.21 -0.13 C-62 0 -62 0 -61 1 C-60.88 2.47 -60.82 3.95 -60.79 5.43 C-60.77 6.37 -60.75 7.31 -60.73 8.28 C-60.72 9.3 -60.7 10.33 -60.68 11.38 C-60.66 12.42 -60.64 13.46 -60.62 14.54 C-60.56 17.88 -60.5 21.22 -60.44 24.56 C-60.39 26.82 -60.35 29.08 -60.31 31.34 C-60.2 36.89 -60.1 42.45 -60 48 C-56.18 47.24 -56.18 47.24 -54.54 45.07 C-54.1 44.24 -53.65 43.41 -53.19 42.56 C-51.18 39.02 -49.12 35.63 -46.75 32.31 C-43.76 28.11 -40.86 23.85 -38 19.56 C-37.57 18.92 -37.15 18.29 -36.71 17.63 C-33.5 12.8 -30.41 7.92 -27.38 2.98 C-26 1 -26 1 -24 0 C-20.53 -0.36 -17.05 -0.47 -13.56 -0.62 C-12.6 -0.68 -11.63 -0.73 -10.63 -0.78 C-9.7 -0.83 -8.77 -0.87 -7.82 -0.91 C-6.97 -0.95 -6.11 -1 -5.24 -1.04 C-3 -1 -3 -1 0 0 Z " fill="#FFFFFF" transform="translate(2795,2516)"/><path d="M0 0 C0.98 -0 1.97 -0 2.98 -0 C4.02 -0 5.06 0 6.12 0.01 C6.64 0.01 6.64 0.01 9.27 -0 C10.25 -0 11.24 -0 12.25 0 C13.16 0 14.07 0 15.01 0 C17.12 0.13 17.12 0.13 18.12 1.13 C18.23 3.52 18.27 5.88 18.27 8.26 C18.27 8.64 18.27 8.64 18.28 10.53 C18.28 12.15 18.29 13.78 18.29 15.41 C18.3 17.99 18.32 20.57 18.34 23.15 C18.39 30.5 18.44 37.84 18.45 45.18 C18.46 49.67 18.49 54.16 18.53 58.65 C18.54 60.35 18.55 62.06 18.55 63.77 C18.53 83.17 18.53 83.17 25.5 90.7 C32.31 93.4 39.97 93.44 46.75 90.63 C51.92 85.19 53.72 79.45 53.66 71.99 C53.66 71.22 53.67 70.45 53.68 69.65 C53.71 67.14 53.7 64.62 53.7 62.11 C53.71 60.35 53.73 58.59 53.74 56.83 C53.78 52.23 53.8 47.62 53.8 43.02 C53.82 35.63 53.88 28.23 53.93 20.84 C53.95 18.25 53.96 15.67 53.96 13.09 C53.97 11.51 53.98 9.94 53.98 8.37 C53.98 8.01 53.98 8.01 53.98 6.18 C54.01 1.25 54.01 1.25 55.12 0.13 C56.75 0.03 58.37 0 60 0 C60.98 -0 61.97 -0 62.98 -0 C64.02 -0 65.06 0 66.12 0.01 C66.64 0.01 66.64 0.01 69.27 -0 C70.25 -0 71.24 -0 72.25 0 C73.16 0 74.07 0 75.01 0 C77.12 0.13 77.12 0.13 78.12 1.13 C78.23 3.62 78.27 6.08 78.27 8.57 C78.27 9.35 78.28 10.13 78.28 10.93 C78.29 13.52 78.29 16.11 78.29 18.7 C78.3 20.5 78.3 22.3 78.3 24.1 C78.31 27.87 78.31 31.65 78.31 35.43 C78.31 40.26 78.32 45.09 78.34 49.93 C78.35 53.64 78.35 57.36 78.35 61.08 C78.35 62.86 78.36 64.64 78.37 66.42 C78.38 68.92 78.37 71.42 78.37 73.92 C78.37 74.65 78.38 75.38 78.38 76.13 C78.33 85.71 74.97 92.65 68.88 99.76 C58.73 108.52 49.12 111.71 35.75 111.57 C35.24 111.57 35.24 111.57 32.69 111.55 C20.85 111.28 11.73 108.54 3.12 100.13 C-3.97 91.95 -6.03 83.81 -6 73.12 C-6.01 72.34 -6.01 71.56 -6.01 70.76 C-6.01 68.2 -6.01 65.64 -6.01 63.08 C-6.01 61.3 -6.01 59.52 -6.01 57.73 C-6.01 54.01 -6.01 50.28 -6.01 46.56 C-6 41.77 -6 36.98 -6.01 32.2 C-6.01 28.52 -6.01 24.84 -6.01 21.17 C-6.01 19.4 -6.01 17.64 -6.01 15.87 C-6.01 13.41 -6.01 10.95 -6 8.49 C-6.01 7.76 -6.01 7.02 -6.01 6.27 C-5.99 0.44 -5.76 0.01 0 0 Z " fill="#FFFFFF" transform="translate(2813.875,2515.8671875)"/><path d="M0 0 C1.3 0.02 2.59 0.04 3.93 0.06 C4.55 0.08 4.55 0.08 7.69 0.19 C8.26 0.2 8.26 0.2 11.14 0.29 C14 1 14 1 15.8 3.17 C17.06 6.13 17.86 8.9 18.54 12.04 C18.79 13.2 19.04 14.36 19.3 15.55 C19.55 16.75 19.8 17.95 20.06 19.19 C20.32 20.37 20.57 21.55 20.84 22.77 C21.96 27.96 23.04 33.15 24.06 38.36 C24.77 41.95 25.59 45.48 26.5 49.02 C27.6 53.35 28.58 57.72 29.59 62.08 C30.29 65.1 31.02 68.06 32 71 C32.66 71 33.32 71 34 71 C34.17 70.07 34.34 69.13 34.52 68.17 C36.34 58.22 38.37 48.33 40.48 38.44 C41.35 34.38 42.2 30.31 43.06 26.25 C43.23 25.47 43.39 24.69 43.56 23.88 C44.36 20.1 45.14 16.31 45.88 12.51 C46.02 11.81 46.16 11.11 46.3 10.39 C46.66 8.5 47.03 6.6 47.39 4.71 C48 2 48 2 49 1 C53.26 0.78 57.52 0.81 61.78 0.81 C63.93 0.81 66.07 0.79 68.21 0.78 C69.57 0.77 70.92 0.77 72.28 0.77 C73.52 0.77 74.76 0.76 76.03 0.76 C79 1 79 1 81 3 C81.38 4.89 81.38 4.89 81.56 7.24 C81.64 8.13 81.71 9.02 81.79 9.93 C81.86 10.9 81.93 11.87 82 12.88 C82.08 13.89 82.16 14.91 82.25 15.96 C82.51 19.31 82.76 22.65 83 26 C83.08 27.13 83.16 28.25 83.25 29.41 C83.68 35.26 84.09 41.1 84.5 46.95 C84.97 53.66 85.48 60.36 86 67.06 C86.08 68.11 86.16 69.15 86.24 70.23 C86.68 76.01 87.15 81.78 87.64 87.56 C87.84 90.04 88.05 92.52 88.25 95 C88.3 95.59 88.3 95.59 88.57 98.55 C88.65 99.62 88.74 100.7 88.83 101.81 C88.91 102.77 88.99 103.72 89.08 104.71 C89 107 89 107 87 109 C84.75 109.23 84.75 109.23 81.99 109.2 C81.5 109.19 81.5 109.19 79 109.18 C78.49 109.17 78.49 109.17 75.88 109.12 C75.35 109.12 75.35 109.12 72.72 109.1 C70.15 109.07 67.57 109.04 65 109 C63.88 106.76 63.82 105.44 63.72 102.95 C63.7 102.5 63.7 102.5 63.61 100.22 C63.57 99.2 63.54 98.18 63.5 97.12 C63.46 96.05 63.42 94.97 63.38 93.86 C62.64 72.25 62.38 50.62 62 29 C61.34 29 60.68 29 60 29 C59.94 29.3 59.94 29.3 59.63 30.79 C59.47 31.58 59.3 32.37 59.12 33.19 C58.96 33.96 58.8 34.74 58.63 35.54 C58 38 58 38 57.02 40.35 C55.77 43.6 55.22 46.76 54.62 50.19 C53.16 58.4 51.37 66.52 49.52 74.65 C48.97 77.12 48.45 79.59 47.93 82.07 C47.75 82.9 47.57 83.72 47.39 84.57 C47.05 86.16 46.72 87.75 46.39 89.34 C45.22 94.78 45.22 94.78 43 97 C40.66 97.23 40.66 97.23 37.77 97.2 C36.74 97.19 35.71 97.18 34.65 97.18 C33.57 97.16 32.49 97.14 31.38 97.12 C30.29 97.12 29.2 97.11 28.08 97.1 C25.39 97.07 22.69 97.04 20 97 C17.67 88.57 15.55 80.16 13.78 71.59 C12.94 67.74 11.98 63.94 11 60.12 C9.37 53.81 8.07 47.47 6.95 41.05 C6.09 36.19 6.09 36.19 5 34 C4.51 33.84 4.51 33.84 2 33 C2.02 33.71 2.03 34.42 2.05 35.15 C2.38 52.8 1.78 70.27 0.56 87.88 C0.5 88.87 0.43 89.86 0.36 90.88 C0.16 93.71 -0.04 96.54 -0.25 99.37 C-0.31 100.23 -0.37 101.09 -0.43 101.97 C-0.88 107.88 -0.88 107.88 -2 109 C-5.27 109.44 -8.58 109.56 -11.88 109.75 C-12.8 109.82 -13.72 109.89 -14.68 109.96 C-15.56 110.01 -16.45 110.06 -17.37 110.11 C-17.78 110.13 -17.78 110.13 -19.84 110.26 C-22 110 -22 110 -23.79 108.79 C-25.42 106.38 -25.22 105.06 -24.93 102.19 C-24.88 101.7 -24.88 101.7 -24.65 99.22 C-24.54 98.16 -24.43 97.1 -24.31 96 C-24.1 93.72 -23.89 91.44 -23.68 89.16 C-23.56 87.97 -23.45 86.79 -23.33 85.57 C-22.8 79.89 -22.4 74.2 -22 68.5 C-21.29 58.82 -20.55 49.14 -19.75 39.46 C-19.28 33.82 -18.88 28.19 -18.54 22.54 C-18.46 21.3 -18.38 20.07 -18.29 18.79 C-18.14 16.39 -18 13.99 -17.87 11.59 C-17.8 10.51 -17.73 9.43 -17.66 8.32 C-17.6 7.36 -17.55 6.41 -17.49 5.42 C-17 3 -17 3 -15.85 1.18 C-11.48 -1.61 -4.99 -0.19 0 0 Z " fill="#FFFFFF" transform="translate(2933,2515)"/><path d="M0 0 C1.25 0.01 2.49 0.02 3.78 0.03 C4.11 0.03 4.11 0.03 5.79 0.04 C7.91 0.05 10.02 0.08 12.14 0.1 C13.58 0.11 15.02 0.12 16.45 0.13 C19.97 0.15 23.5 0.19 27.02 0.23 C28.69 5.56 30.36 10.89 32.02 16.23 C32.2 16.8 32.2 16.8 33.1 19.69 C35.17 26.35 37.12 33.04 39.02 39.75 C40.61 45.27 42.31 50.75 44.02 56.23 C44.69 58.39 45.35 60.56 46.02 62.73 C46.35 63.79 46.68 64.86 47.02 65.96 C47.7 68.18 48.38 70.4 49.05 72.62 C50.52 77.41 51.99 82.18 53.64 86.91 C55.01 90.9 55.8 94.91 56.49 99.06 C57.02 101.23 57.02 101.23 59.02 104.23 C59.02 105.55 59.02 106.87 59.02 108.23 C50.44 108.23 41.86 108.23 33.02 108.23 C30.58 98.91 30.58 98.91 29.82 95.99 C29.72 95.61 29.72 95.61 29.21 93.68 C29.11 93.29 29.11 93.29 28.59 91.31 C28.12 89.6 27.58 87.91 27.02 86.23 C22.45 83.94 16.16 84.95 11.14 84.91 C9.85 84.89 8.56 84.86 7.23 84.83 C5.98 84.82 4.74 84.81 3.46 84.8 C2.32 84.79 1.19 84.77 0.01 84.76 C-3.64 85.33 -4.78 86.31 -6.98 89.23 C-7.66 91.79 -8.17 94.13 -8.54 96.73 C-9.78 104.97 -9.78 104.97 -12.98 108.23 C-15.34 108.68 -15.34 108.68 -18.09 108.62 C-18.58 108.61 -18.58 108.61 -21.06 108.58 C-22.09 108.55 -23.11 108.51 -24.17 108.48 C-25.2 108.46 -26.24 108.44 -27.31 108.42 C-29.87 108.38 -32.42 108.31 -34.98 108.23 C-36.18 104.2 -35.53 101.83 -34.29 97.79 C-33.92 96.54 -33.54 95.3 -33.16 94.02 C-32.77 92.77 -32.38 91.52 -31.98 90.23 C-31.81 89.67 -31.81 89.67 -30.96 86.88 C-29.98 83.66 -28.98 80.44 -27.98 77.23 C-27.31 75.06 -26.65 72.89 -25.98 70.73 C-24.99 67.49 -23.99 64.25 -22.98 61.01 C-21.25 55.43 -19.57 49.85 -17.98 44.23 C-16.28 38.23 -14.5 32.26 -12.63 26.31 C-12.14 24.72 -11.64 23.13 -11.15 21.55 C-10.23 18.54 -9.29 15.54 -8.36 12.54 C-8.05 11.56 -7.75 10.58 -7.44 9.56 C-7.15 8.65 -6.86 7.73 -6.57 6.78 C-6.31 5.95 -6.05 5.12 -5.79 4.27 C-4.47 0.94 -3.58 0.27 0 0 Z M9.02 20.23 C7.61 23.51 6.69 26.51 6.14 30.04 C5.32 34.88 4.23 39.6 3.02 44.35 C2.84 45.04 2.67 45.73 2.49 46.44 C2.32 47.11 2.15 47.78 1.97 48.47 C-1.48 62.08 -1.48 62.08 -0.98 66.23 C1.42 68.63 1.99 68.48 5.27 68.49 C6.1 68.5 6.94 68.5 7.8 68.5 C8.24 68.5 8.24 68.5 10.46 68.48 C11.33 68.48 12.2 68.49 13.1 68.5 C13.94 68.5 14.78 68.5 15.64 68.49 C16.41 68.49 17.18 68.49 17.97 68.49 C20.02 68.23 20.02 68.23 23.02 66.23 C21.62 58.13 19.96 50.11 18.14 42.1 C17.9 40.99 17.66 39.87 17.41 38.72 C15.92 32.17 14.05 26.23 11.02 20.23 C10.36 20.23 9.7 20.23 9.02 20.23 Z " fill="#FFFFFF" transform="translate(3063.98095703125,2515.77294921875)"/><path d="M0 0 C7.59 0 15.18 0 23 0 C25.4 2.4 25.25 2.91 25.25 6.18 C25.26 7.05 25.27 7.93 25.27 8.83 C25.27 9.79 25.26 10.75 25.26 11.74 C25.26 12.75 25.27 13.77 25.27 14.81 C25.28 18.16 25.27 21.52 25.27 24.88 C25.27 27.2 25.27 29.52 25.27 31.85 C25.27 36.72 25.27 41.6 25.26 46.47 C25.25 52.74 25.26 59 25.27 65.26 C25.28 70.06 25.27 74.86 25.27 79.66 C25.27 81.97 25.27 84.28 25.27 86.59 C25.28 89.81 25.27 93.03 25.26 96.26 C25.26 97.22 25.27 98.18 25.27 99.17 C25.27 100.05 25.26 100.92 25.25 101.82 C25.25 102.59 25.25 103.35 25.25 104.14 C25 106 25 106 23 108 C15.41 108 7.82 108 0 108 C0 72.36 0 36.72 0 0 Z " fill="#FFFFFF" transform="translate(3225,2516)"/><path d="M0 0 C16.43 -0.31 30.94 3.22 43.62 14.12 C43.02 18.16 40.96 20.75 38.49 23.93 C37.75 24.93 37 25.93 36.23 26.95 C33.62 29.12 33.62 29.12 29.97 29.03 C26.64 28.13 24.47 27.02 21.62 25.12 C13.96 20.89 6.26 20.44 -2.38 21.12 C-6.86 22.6 -9.56 24.25 -12.38 28.12 C-13.1 31.59 -13.08 34.65 -12.38 38.12 C-7.59 45.08 1.17 48.2 9.02 50.39 C22.6 54.22 37.09 60.55 44.75 72.96 C49.39 82.22 48.99 94.38 46.96 104.36 C44.83 110.29 41.07 114.75 36.62 119.12 C36.06 119.68 35.5 120.23 34.93 120.81 C23.78 131.15 8 132.92 -6.61 132.46 C-21.69 131.61 -35.82 125.88 -47.38 116.12 C-47.01 111.03 -44.22 108.3 -40.82 104.81 C-40.3 104.26 -39.78 103.71 -39.24 103.14 C-37.97 101.79 -36.68 100.46 -35.38 99.12 C-32.22 99.77 -29.8 100.88 -27.01 102.5 C-26.61 102.72 -26.61 102.72 -24.61 103.85 C-22.85 104.86 -21.08 105.86 -19.32 106.87 C-11.27 110.3 -0.93 109.91 7.55 108.43 C12.31 106.4 14.7 103.52 17.49 99.25 C19.1 94.77 18.73 91.65 16.81 87.3 C13.3 81.39 7.79 79.53 1.62 77.12 C0.44 76.58 -0.73 76.05 -1.95 75.5 C-4.74 74.38 -7.43 73.51 -10.32 72.68 C-22.16 69.21 -32.21 62.26 -39.38 52.12 C-43.69 43.62 -43.87 32.38 -41.32 23.31 C-37.85 14.56 -31.35 7.87 -22.88 3.97 C-15.23 0.91 -8.16 0.29 0 0 Z " fill="#DB240B" transform="translate(2900.3828125,1570.87890625)"/><path d="M0 0 C0.93 -0 1.85 -0.01 2.81 -0.01 C3.3 -0 3.3 -0 5.75 0.02 C6.24 0.01 6.24 0.01 8.69 -0.01 C9.15 -0.01 9.15 -0.01 11.5 0 C12.35 0 13.2 0 14.08 0.01 C16.32 0.27 16.32 0.27 19.32 2.27 C19.69 4.45 19.69 4.45 19.68 7.21 C19.68 8.26 19.69 9.31 19.69 10.38 C19.68 11.54 19.67 12.69 19.66 13.88 C19.66 14.48 19.66 14.48 19.66 17.54 C19.66 20.86 19.64 24.19 19.62 27.51 C19.6 30.98 19.6 34.45 19.6 37.92 C19.59 44.49 19.56 51.06 19.53 57.64 C19.5 65.12 19.48 72.6 19.47 80.08 C19.44 95.48 19.38 110.87 19.32 126.27 C16.2 127.83 12.89 127.39 9.46 127.36 C8.69 127.36 7.92 127.36 7.12 127.36 C4.64 127.35 2.17 127.34 -0.31 127.33 C-1.99 127.32 -3.66 127.32 -5.34 127.31 C-9.45 127.3 -13.57 127.29 -17.68 127.27 C-20.68 120.88 -23.44 114.52 -25.68 107.83 C-27.35 102.96 -29.08 98.18 -31.12 93.45 C-33.72 87.38 -35.86 81.16 -38.02 74.92 C-44.42 56.42 -44.42 56.42 -48.28 47.62 C-49.46 44.81 -50.28 42.3 -50.87 39.33 C-51.03 38.56 -51.19 37.78 -51.35 36.99 C-51.41 36.7 -51.41 36.7 -51.68 35.27 C-52.34 35.27 -53 35.27 -53.68 35.27 C-53.9 41.2 -53.68 46.84 -52.71 52.71 C-51.58 60.33 -51.3 67.83 -51.2 75.53 C-51.18 76.94 -51.15 78.34 -51.13 79.75 C-51.08 82.67 -51.03 85.58 -51 88.5 C-50.95 92.24 -50.88 95.97 -50.81 99.71 C-50.75 102.6 -50.71 105.49 -50.67 108.39 C-50.65 109.77 -50.62 111.14 -50.6 112.52 C-50.56 114.44 -50.54 116.36 -50.52 118.27 C-50.51 118.82 -50.51 118.82 -50.47 121.57 C-50.68 124.27 -50.68 124.27 -52.68 127.27 C-54.99 127.62 -54.99 127.62 -57.84 127.59 C-58.35 127.59 -58.35 127.59 -60.94 127.58 C-62.01 127.56 -63.08 127.54 -64.18 127.52 C-65.25 127.51 -66.33 127.51 -67.43 127.5 C-75.38 127.42 -75.38 127.42 -77.68 126.27 C-77.73 110.26 -77.77 94.26 -77.79 78.26 C-77.8 70.83 -77.81 63.4 -77.83 55.97 C-77.85 49.49 -77.87 43.02 -77.87 36.54 C-77.87 33.12 -77.88 29.69 -77.9 26.26 C-77.91 22.43 -77.91 18.61 -77.91 14.78 C-77.92 13.64 -77.93 12.5 -77.93 11.32 C-77.93 10.28 -77.93 9.24 -77.92 8.18 C-77.93 7.27 -77.93 6.37 -77.93 5.43 C-77.68 3.27 -77.68 3.27 -75.68 1.27 C-73.21 1.07 -70.85 0.99 -68.38 1 C-68.01 1 -68.01 1 -66.19 0.99 C-64.66 0.99 -63.13 1 -61.6 1 C-59.26 1.02 -56.92 1 -54.58 0.99 C-53.1 0.99 -51.61 1 -50.12 1 C-49.42 1 -48.72 0.99 -48 0.99 C-44.34 1.02 -42.82 1.18 -39.68 3.27 C-38.91 5.01 -38.91 5.01 -38.31 7.14 C-37.14 10.96 -35.75 14.59 -34.18 18.27 C-32.71 21.74 -31.33 25.17 -30.18 28.77 C-28.69 33.44 -26.78 37.91 -24.87 42.43 C-23.67 45.3 -22.56 48.18 -21.49 51.1 C-20.46 53.87 -19.38 56.63 -18.31 59.39 C-16.03 65.28 -13.89 71.21 -11.8 77.17 C-9 84.95 -9 84.95 -6.68 87.27 C-6.29 89.25 -5.95 91.26 -5.68 93.27 C-5.02 93.27 -4.36 93.27 -3.68 93.27 C-4.16 89.41 -4.64 85.57 -5.21 81.72 C-7.15 67.28 -6.99 52.79 -6.94 38.25 C-6.93 34.47 -6.94 30.7 -6.95 26.92 C-6.96 24 -6.96 21.07 -6.95 18.15 C-6.95 16.75 -6.95 15.36 -6.96 13.96 C-6.96 12.03 -6.95 10.1 -6.94 8.17 C-6.94 7.08 -6.94 5.98 -6.94 4.85 C-6.48 0.14 -4.16 0.01 0 0 Z " fill="#DB240B" transform="translate(2618.68359375,1572.734375)"/><path d="M0 0 C11.22 0 22.44 0 34 0 C37.51 7.01 40.11 12.92 42.06 20.31 C42.57 22.17 43.08 24.02 43.59 25.88 C43.71 26.32 43.71 26.32 44.32 28.55 C46.11 35 48.17 41.37 50.18 47.75 C52.6 55.43 54.94 63.13 57.2 70.86 C58.41 75 59.65 79.13 60.94 83.25 C62.99 89.88 64.88 96.56 66.78 103.23 C68.75 110.19 70.83 117.11 73 124 C69.23 127.77 62.72 126.37 57.62 126.38 C56.38 126.4 55.13 126.42 53.85 126.45 C52.66 126.45 51.46 126.46 50.23 126.46 C49.13 126.47 48.03 126.48 46.9 126.49 C43.33 125.89 42.19 124.84 40 122 C39.06 118.86 39.06 118.86 38.44 115.31 C37.4 109.5 35.92 104.76 34 99 C22.12 99 10.24 99 -2 99 C-3.81 107.5 -3.81 107.5 -4.36 110.13 C-7.21 123.21 -7.21 123.21 -10 126 C-11.91 126.1 -13.83 126.13 -15.75 126.13 C-16.92 126.13 -18.08 126.14 -19.28 126.14 C-20.51 126.13 -21.74 126.13 -23 126.12 C-23.61 126.13 -23.61 126.13 -26.72 126.14 C-27.88 126.14 -29.05 126.13 -30.25 126.13 C-31.33 126.13 -32.41 126.13 -33.52 126.13 C-36 126 -36 126 -37 125 C-36.57 118.27 -35.07 112.39 -33 106 C-32.33 103.79 -31.67 101.58 -31 99.38 C-29.9 95.78 -28.75 92.25 -27.38 88.75 C-26.36 85.99 -25.67 83.65 -25.1 80.82 C-24.08 76.12 -22.64 71.66 -21.06 67.12 C-19.08 61.42 -17.34 55.71 -15.78 49.88 C-14.43 44.88 -12.96 39.91 -11.5 34.94 C-11.2 33.93 -10.91 32.91 -10.61 31.87 C-10.02 29.86 -9.43 27.86 -8.84 25.85 C-8.31 24.06 -7.8 22.28 -7.29 20.48 C-5.26 13.42 -2.68 6.96 0 0 Z M15 25 C14.81 25.75 14.63 26.5 14.44 27.27 C13.56 30.78 12.69 34.3 11.81 37.81 C11.5 39.08 11.18 40.35 10.86 41.66 C9.42 47.42 7.97 53.18 6.42 58.91 C6.19 59.77 5.96 60.63 5.72 61.52 C5.29 63.09 4.86 64.66 4.42 66.22 C3.43 69.88 2.65 73.2 3 77 C4.75 78.75 7.16 78.13 9.53 78.13 C10.09 78.13 10.09 78.13 12.93 78.14 C13.52 78.13 13.52 78.13 16.5 78.12 C17.68 78.13 18.86 78.13 20.07 78.14 C21.19 78.14 22.31 78.13 23.47 78.13 C23.99 78.13 23.99 78.13 26.61 78.13 C29 78 29 78 30 77 C29 64.24 25.24 51.57 22.31 39.12 C21.99 37.74 21.67 36.36 21.34 34.98 C20.56 31.65 19.78 28.33 19 25 C17.68 25 16.36 25 15 25 Z " fill="#DB240B" transform="translate(2733,1574)"/><path d="M0 0 C0.73 0 1.46 0.01 2.21 0.01 C4.53 0.03 6.85 0.07 9.18 0.11 C10.75 0.12 12.33 0.13 13.9 0.15 C17.77 0.18 21.63 0.23 25.49 0.29 C27.92 5.57 30.1 10.78 31.8 16.36 C31.9 16.68 31.9 16.68 32.41 18.35 C34.66 25.76 36.81 33.2 38.97 40.63 C41.07 47.88 43.24 55.09 45.49 62.29 C48.13 70.82 50.71 79.36 53.27 87.91 C54.7 92.69 56.15 97.46 57.61 102.23 C57.77 102.73 57.77 102.73 58.54 105.26 C59.22 107.44 59.93 109.62 60.66 111.8 C61.03 112.95 61.41 114.1 61.8 115.29 C62.15 116.32 62.49 117.36 62.85 118.42 C63.53 121.49 63.19 123.27 62.49 126.29 C58.39 126.37 54.3 126.42 50.21 126.46 C48.82 126.47 47.42 126.49 46.03 126.52 C44.03 126.56 42.03 126.57 40.03 126.59 C38.82 126.6 37.62 126.62 36.38 126.63 C35.42 126.52 34.47 126.41 33.49 126.29 C31.51 123.33 30.99 121.68 30.3 118.26 C30.1 117.28 29.89 116.31 29.68 115.31 C29.26 113.25 28.84 111.2 28.43 109.14 C28.22 108.17 28.02 107.2 27.8 106.2 C27.71 105.75 27.71 105.75 27.26 103.49 C26.49 101.29 26.49 101.29 23.49 99.29 C20.8 99.12 18.22 99.06 15.54 99.1 C14.77 99.1 13.99 99.1 13.2 99.11 C10.73 99.12 8.27 99.14 5.8 99.17 C4.13 99.18 2.46 99.19 0.78 99.2 C-3.32 99.22 -7.41 99.25 -11.51 99.29 C-11.99 101.67 -12.47 104.05 -12.95 106.43 C-13.08 107.1 -13.21 107.76 -13.35 108.45 C-14.28 113.1 -15.16 117.76 -15.98 122.44 C-16.51 124.29 -16.51 124.29 -18.51 126.29 C-21.22 126.52 -21.22 126.52 -24.61 126.49 C-25.82 126.48 -27.04 126.48 -28.29 126.47 C-29.56 126.45 -30.83 126.44 -32.14 126.42 C-32.78 126.41 -32.78 126.41 -36.01 126.39 C-39.18 126.37 -42.35 126.33 -45.51 126.29 C-46.57 121.79 -46.17 119.65 -44.51 115.29 C-43.99 113.71 -43.47 112.12 -42.96 110.53 C-42.68 109.65 -42.39 108.77 -42.1 107.86 C-39.3 99.11 -36.63 90.35 -34.21 81.48 C-31.96 73.25 -29.42 65.12 -26.81 56.99 C-26.66 56.51 -26.66 56.51 -25.88 54.09 C-25.28 52.2 -24.67 50.31 -24.06 48.42 C-22.29 42.9 -20.68 37.36 -19.18 31.76 C-18.08 27.69 -16.81 23.67 -15.55 19.65 C-14.83 17.34 -14.14 15.01 -13.47 12.68 C-13.13 11.52 -12.8 10.36 -12.45 9.17 C-12.15 8.11 -11.85 7.06 -11.54 5.97 C-9.23 -0.05 -6.02 -0.13 0 0 Z M5.92 27.81 C4.04 31.07 3.32 34.4 2.55 38.04 C2.21 39.57 1.87 41.1 1.53 42.62 C1.36 43.4 1.19 44.17 1.01 44.97 C0.19 48.59 -0.72 52.19 -1.64 55.79 C-5.93 72.86 -5.93 72.86 -5.51 77.29 C-3.8 79.01 -1.54 78.42 0.8 78.43 C1.88 78.43 2.95 78.43 4.06 78.43 C5.19 78.43 6.32 78.42 7.49 78.42 C8.62 78.42 9.75 78.43 10.92 78.43 C11.99 78.43 13.07 78.43 14.18 78.43 C15.17 78.42 16.16 78.42 17.19 78.42 C19.49 78.29 19.49 78.29 20.49 77.29 C20.45 70.13 19.51 63.48 17.25 56.7 C16.2 53.38 15.6 50.01 14.95 46.59 C14.49 44.29 14.49 44.29 13.49 40.86 C12.14 36.06 11.32 31.2 10.49 26.29 C7.49 26.29 7.49 26.29 5.92 27.81 Z " fill="#DB240B" transform="translate(3044.51171875,1573.70703125)"/><path d="M0 0 C0.64 0.49 1.29 0.99 1.95 1.5 C2.82 2.14 3.7 2.79 4.59 3.46 C18.97 14.63 26.36 27.48 28.95 45.5 C30.53 61.12 26.49 76.04 16.95 88.5 C14.27 91.69 11.46 94.73 8.57 97.74 C6.79 99.61 5.08 101.55 3.43 103.53 C1.06 106.36 -1.43 108.89 -4.05 111.5 C-5.07 112.55 -6.1 113.6 -7.12 114.65 C-10.12 117.74 -13.14 120.82 -16.17 123.89 C-17.47 125.22 -18.76 126.55 -20.06 127.88 C-21.93 129.82 -23.82 131.73 -25.71 133.64 C-26.28 134.25 -26.86 134.85 -27.45 135.47 C-29.1 137.12 -29.1 137.12 -32.05 139.5 C-35.91 139.04 -37.67 137.24 -40.38 134.53 C-41.17 133.73 -41.97 132.93 -42.8 132.11 C-43.62 131.27 -44.45 130.43 -45.3 129.56 C-46.14 128.72 -46.98 127.88 -47.84 127.02 C-54.05 120.76 -54.05 120.76 -54.05 118.5 C-55.04 118.17 -56.03 117.84 -57.05 117.5 C-58.34 116.18 -58.34 116.18 -59.8 114.37 C-63.48 110.01 -67.48 106.05 -71.55 102.06 C-82.02 91.66 -82.02 91.66 -86.05 85.5 C-86.66 84.56 -87.27 83.62 -87.91 82.66 C-96.76 67.84 -97.5 51.73 -93.73 35.12 C-90.01 21.54 -81.67 10.32 -70.05 2.5 C-69.55 2 -69.06 1.5 -68.55 0.98 C-65.85 -1.68 -62.48 -3.03 -59.05 -4.5 C-58.21 -4.88 -57.37 -5.26 -56.51 -5.65 C-39.03 -12.31 -15.54 -10.85 0 0 Z " fill="#DB240B" transform="translate(2546.046875,2512.50390625)"/></svg>